SplineFontDB: 3.0
FontName: Untitled1
FullName: Untitled1
FamilyName: Untitled1
Weight: Regular
Copyright: Copyright (c) 2019, Jack
UComments: "2019-8-23: Created with FontForge (http://fontforge.org)"
Version: 001.000
ItalicAngle: 0
UnderlinePosition: -200
UnderlineWidth: 25
Ascent: 850
Descent: 150
InvalidEm: 0
LayerCount: 2
Layer: 0 0 "Back" 1
Layer: 1 0 "Fore" 0
XUID: [1021 647 -312734098 29385]
StyleMap: 0x0000
FSType: 0
OS2Version: 0
OS2_WeightWidthSlopeOnly: 0
OS2_UseTypoMetrics: 1
CreationTime: 1566577596
ModificationTime: 1567358227
OS2TypoAscent: 0
OS2TypoAOffset: 1
OS2TypoDescent: 0
OS2TypoDOffset: 1
OS2TypoLinegap: 90
OS2WinAscent: 0
OS2WinAOffset: 1
OS2WinDescent: 0
OS2WinDOffset: 1
HheadAscent: 0
HheadAOffset: 1
HheadDescent: 0
HheadDOffset: 1
Lookup: 6 0 0 "semivowels" { "semivowels contextual 0"  "semivowels contextual 1"  } ['liga' ('latn' <'dflt' > 'DFLT' <'dflt' > ) ]
Lookup: 1 0 0 "Single Substitution lookup 1" { "Single Substitution lookup 1 subtable"  } []
Lookup: 1 0 0 "Single Substitution lookup 2" { "Single Substitution lookup 2 subtable"  } []
Lookup: 4 0 1 "diphthongs" { "diphthongs subtable"  } ['liga' ('latn' <'dflt' > 'DFLT' <'dflt' > ) ]

StartChar: ny
Encoding: 0 60256 0
Width: 810
VWidth: 2427
Flags: W
HStem: 254.945 60<161.868 649.121> 528.571 60<161.868 649.121> 802.198 60<161.868 649.121>
VStem: 101.868 60<314.945 528.571 588.571 802.198> 649.121 60<314.945 528.571 588.571 802.198>
AnchorPoint: "Above" 405 230 basechar 0
LayerCount: 2
Back
SplineSet
131.868164062 832.198242188 m 1
 679.12109375 832.198242188 l 1
 679.12109375 284.9453125 l 1
 131.868164062 284.9453125 l 1
 131.868164062 832.198242188 l 1
131.868164062 558.571289062 m 1
 679.12109375 558.571289062 l 1025
EndSplineSet
Fore
SplineSet
131.868164062 862.198242188 m 2
 679.12109375 862.198242188 l 2
 697.280139177 862.198242188 709.12109375 845.074127387 709.12109375 832.198242188 c 2
 709.12109375 588.571289062 l 1
 709.12109375 558.571289062 l 1
 709.12109375 528.571289062 l 1
 709.12109375 284.9453125 l 2
 709.12109375 266.786267073 691.996978949 254.9453125 679.12109375 254.9453125 c 2
 131.868164062 254.9453125 l 2
 113.709118636 254.9453125 101.868164062 272.069427301 101.868164062 284.9453125 c 2
 101.868164062 528.571289062 l 1
 101.868164062 558.571289062 l 1
 101.868164062 588.571289062 l 1
 101.868164062 832.198242188 l 2
 101.868164062 850.357287614 118.992278863 862.198242188 131.868164062 862.198242188 c 2
649.12109375 588.571289062 m 1
 649.12109375 802.198242188 l 1
 161.868164062 802.198242188 l 1
 161.868164062 588.571289062 l 1
 649.12109375 588.571289062 l 1
649.12109375 528.571289062 m 1
 161.868164062 528.571289062 l 1
 161.868164062 314.9453125 l 1
 649.12109375 314.9453125 l 1
 649.12109375 528.571289062 l 1
EndSplineSet
Substitution2: "Single Substitution lookup 82 subtable" ny.cvc.3
Substitution2: "Single Substitution lookup 71 subtable" ny.cvc.1
Substitution2: "Single Substitution lookup 64 subtable" ny.ccv.2
Substitution2: "Single Substitution lookup 60 subtable" ny.cvc.3
Substitution2: "Single Substitution lookup 56 subtable" ny.cvc.1
Substitution2: "Single Substitution lookup 54 subtable" ny.ccv.1
Substitution2: "Single Substitution lookup 31 subtable" ny.ccv.2
Substitution2: "Single Substitution lookup 18 subtable" ny.ccv.2
EndChar

StartChar: dy
Encoding: 1 60257 1
Width: 810
VWidth: 2427
Flags: W
HStem: 254.945 60<161.868 709.121> 528.571 60<161.868 709.121> 802.198 60<161.868 709.121>
VStem: 101.868 60<314.945 528.571 588.571 802.198>
AnchorPoint: "Above" 405 230 basechar 0
LayerCount: 2
Back
SplineSet
679.12109375 284.9453125 m 5
 131.868164062 284.9453125 l 5
 131.868164062 832.198242188 l 5
 679.12109375 832.198242188 l 1029
131.868164062 558.571289062 m 5
 679.12109375 558.571289062 l 1029
EndSplineSet
Fore
SplineSet
709.12109375 284.9453125 m 1
 709.12109375 254.9453125 l 1
 679.12109375 254.9453125 l 1
 131.868164062 254.9453125 l 2
 113.709118636 254.9453125 101.868164062 272.069427301 101.868164062 284.9453125 c 2
 101.868164062 528.571289062 l 1
 101.868164062 558.571289062 l 1
 101.868164062 588.571289062 l 1
 101.868164062 832.198242188 l 2
 101.868164062 850.357287614 118.992278863 862.198242188 131.868164062 862.198242188 c 2
 679.12109375 862.198242188 l 1
 709.12109375 862.198242188 l 1
 709.12109375 832.198242188 l 1
 709.12109375 802.198242188 l 1
 679.12109375 802.198242188 l 1
 161.868164062 802.198242188 l 1
 161.868164062 588.571289062 l 1
 679.12109375 588.571289062 l 1
 709.12109375 588.571289062 l 1
 709.12109375 558.571289062 l 1
 709.12109375 528.571289062 l 1
 679.12109375 528.571289062 l 1
 161.868164062 528.571289062 l 1
 161.868164062 314.9453125 l 1
 679.12109375 314.9453125 l 1
 709.12109375 314.9453125 l 1
 709.12109375 284.9453125 l 1
EndSplineSet
Substitution2: "Single Substitution lookup 82 subtable" dy.cvc.3
Substitution2: "Single Substitution lookup 71 subtable" dy.cvc.1
Substitution2: "Single Substitution lookup 64 subtable" dy.ccv.2
Substitution2: "Single Substitution lookup 60 subtable" dy.cvc.3
Substitution2: "Single Substitution lookup 56 subtable" dy.cvc.1
Substitution2: "Single Substitution lookup 54 subtable" dy.ccv.1
Substitution2: "Single Substitution lookup 36 subtable" dy.ccv.2
Substitution2: "Single Substitution lookup 23 subtable" dy.ccv.2
EndChar

StartChar: ty
Encoding: 2 60258 2
Width: 810
VWidth: 2427
Flags: W
HStem: 254.945 60<101.868 649.121> 528.571 60<101.868 649.121> 802.198 60<101.868 649.121>
VStem: 649.121 60<314.945 528.571 588.571 802.198>
AnchorPoint: "Above" 405 230 basechar 0
LayerCount: 2
Back
SplineSet
131.868164062 832.198242188 m 5
 679.12109375 832.198242188 l 5
 679.12109375 284.9453125 l 5
 131.868164062 284.9453125 l 1029
131.868164062 558.571289062 m 5
 679.12109375 558.571289062 l 1029
EndSplineSet
Fore
SplineSet
101.868164062 558.571289062 m 1
 101.868164062 588.571289062 l 1
 131.868164062 588.571289062 l 1
 649.12109375 588.571289062 l 1
 649.12109375 802.198242188 l 1
 131.868164062 802.198242188 l 1
 101.868164062 802.198242188 l 1
 101.868164062 832.198242188 l 1
 101.868164062 862.198242188 l 1
 131.868164062 862.198242188 l 1
 679.12109375 862.198242188 l 2
 697.280139177 862.198242188 709.12109375 845.074127387 709.12109375 832.198242188 c 2
 709.12109375 588.571289062 l 1
 709.12109375 558.571289062 l 1
 709.12109375 528.571289062 l 1
 709.12109375 284.9453125 l 2
 709.12109375 266.786267073 691.996978949 254.9453125 679.12109375 254.9453125 c 2
 131.868164062 254.9453125 l 1
 101.868164062 254.9453125 l 1
 101.868164062 284.9453125 l 1
 101.868164062 314.9453125 l 1
 131.868164062 314.9453125 l 1
 649.12109375 314.9453125 l 1
 649.12109375 528.571289062 l 1
 131.868164062 528.571289062 l 1
 101.868164062 528.571289062 l 1
 101.868164062 558.571289062 l 1
EndSplineSet
Substitution2: "Single Substitution lookup 82 subtable" ty.cvc.3
Substitution2: "Single Substitution lookup 71 subtable" ty.cvc.1
Substitution2: "Single Substitution lookup 64 subtable" ty.ccv.2
Substitution2: "Single Substitution lookup 60 subtable" ty.cvc.3
Substitution2: "Single Substitution lookup 56 subtable" ty.cvc.1
Substitution2: "Single Substitution lookup 54 subtable" ty.ccv.1
Substitution2: "Single Substitution lookup 28 subtable" ty.ccv.2
Substitution2: "Single Substitution lookup 15 subtable" ty.ccv.2
EndChar

StartChar: zy
Encoding: 3 60259 3
Width: 810
VWidth: 2427
Flags: W
HStem: 255.494 60<216.813 513.327> 528.571 60<216.813 535.255>
VStem: 156.813 60<315.494 528.571 588.571 862.198>
AnchorPoint: "Above" 405 230 basechar 0
LayerCount: 2
Back
SplineSet
187.912109375 558.571289062 m 5
 545.0546875 558.571289062 l 1029
186.813476562 832.198242188 m 5
 186.813476562 285.494140625 l 5
 539.560546875 285.494140625 l 5
 556.549804688 520.936523438 569.8125 662.146484375 701.098632812 832.198242188 c 1029
EndSplineSet
Fore
SplineSet
186.813476562 862.198242188 m 1
 216.813476562 862.198242188 l 1
 216.813476562 832.198242188 l 1
 216.813476562 588.571289062 l 1
 545.0546875 588.571289062 l 1
 548.080767556 588.571289062 l 1
 570.775868649 678.746861729 608.535028083 761.394240322 677.352146435 850.531392073 c 2
 695.685296321 874.277878451 l 1
 719.431782698 855.944728565 l 1
 743.178269076 837.611578679 l 1
 724.84511919 813.865092302 l 2
 598.752674786 650.540593678 586.518809392 519.42600322 569.482747014 283.334988282 c 0
 568.515527761 269.930965091 556.134584781 255.494140625 539.560546875 255.494140625 c 2
 186.813476562 255.494140625 l 2
 173.937591363 255.494140625 156.813476562 267.335095198 156.813476562 285.494140625 c 2
 156.813476562 832.198242188 l 1
 156.813476562 862.198242188 l 1
 186.813476562 862.198242188 l 1
216.813476562 528.571289062 m 1
 216.813476562 315.494140625 l 1
 511.669291804 315.494140625 l 1
 517.520061795 394.508731531 523.662023105 464.027023494 535.254895139 528.571289062 c 1
 216.813476562 528.571289062 l 1
EndSplineSet
Substitution2: "Single Substitution lookup 82 subtable" zy.cvc.3
Substitution2: "Single Substitution lookup 71 subtable" zy.cvc.1
Substitution2: "Single Substitution lookup 64 subtable" zy.ccv.2
Substitution2: "Single Substitution lookup 60 subtable" zy.cvc.3
Substitution2: "Single Substitution lookup 56 subtable" zy.cvc.1
Substitution2: "Single Substitution lookup 54 subtable" zy.ccv.1
Substitution2: "Single Substitution lookup 46 subtable" zy.ccv.2
EndChar

StartChar: sy
Encoding: 4 60260 4
Width: 810
VWidth: 2427
Flags: W
HStem: 528.571 60<321.344 649.121> 802.198 60<356.873 649.121>
VStem: 649.121 60<254.945 528.571 588.571 802.198>
AnchorPoint: "Above" 405 230 basechar 0
LayerCount: 2
Back
SplineSet
131.868164062 284.9453125 m 5
 229.8125 407.999023438 291.185546875 483.153320312 332.966796875 832.198242188 c 5
 679.12109375 832.198242188 l 5
 679.12109375 284.9453125 l 1029
308.791015625 558.571289062 m 5
 679.12109375 558.571289062 l 1029
EndSplineSet
Fore
SplineSet
113.185366276 261.472923042 m 1
 89.712976818 280.155720829 l 1
 108.395774605 303.628110287 l 2
 205.400829032 425.501742005 261.688442959 489.143705175 303.17944167 835.763837492 c 0
 305.057773328 851.455616144 319.629260306 862.198242188 332.966796875 862.198242188 c 2
 679.12109375 862.198242188 l 2
 697.280139177 862.198242188 709.12109375 845.074127387 709.12109375 832.198242188 c 2
 709.12109375 588.571289062 l 1
 709.12109375 558.571289062 l 1
 709.12109375 528.571289062 l 1
 709.12109375 284.9453125 l 1
 709.12109375 254.9453125 l 1
 679.12109375 254.9453125 l 1
 649.12109375 254.9453125 l 1
 649.12109375 284.9453125 l 1
 649.12109375 528.571289062 l 1
 308.791015625 528.571289062 l 1
 304.490354684 528.571289062 l 1
 266.051639937 406.958571776 216.87335704 343.570097076 155.34055352 266.262514713 c 2
 136.657755734 242.790125255 l 1
 113.185366276 261.472923042 l 1
321.343509654 588.571289062 m 1
 649.12109375 588.571289062 l 1
 649.12109375 802.198242188 l 1
 359.487033139 802.198242188 l 1
 348.465190521 716.006389241 335.787884291 646.459279113 321.343509654 588.571289062 c 1
EndSplineSet
Substitution2: "Single Substitution lookup 82 subtable" sy.cvc.3
Substitution2: "Single Substitution lookup 71 subtable" sy.cvc.1
Substitution2: "Single Substitution lookup 64 subtable" sy.ccv.2
Substitution2: "Single Substitution lookup 60 subtable" sy.cvc.3
Substitution2: "Single Substitution lookup 56 subtable" sy.cvc.1
Substitution2: "Single Substitution lookup 54 subtable" sy.ccv.1
Substitution2: "Single Substitution lookup 41 subtable" sy.ccv.2
EndChar

StartChar: gy
Encoding: 5 60261 5
Width: 810
VWidth: 2427
Flags: W
AnchorPoint: "Above" 405 230 basechar 0
LayerCount: 2
Back
SplineSet
679.12109375 832.198242188 m 5
 132.966796875 569.560546875 l 5
 679.12109375 284.9453125 l 1029
EndSplineSet
Fore
SplineSet
706.157438551 845.199629028 m 1
 719.158825392 818.163284227 l 1
 692.122480591 805.161897386 l 1
 199.949784063 568.48317225 l 1
 692.985251839 311.549543751 l 1
 719.589483091 297.685385662 l 1
 705.725325001 271.081154411 l 1
 691.861166912 244.476923159 l 1
 665.256935661 258.341081249 l 1
 119.102638786 542.956315624 l 2
 115.741638585 544.707820401 109.903545343 549.543858639 107.033842742 554.4780441 c 0
 98.364176493 569.384725076 104.424482277 589.123484486 119.965410034 596.596891676 c 2
 666.119706909 859.234586989 l 1
 693.156051711 872.23597383 l 1
 706.157438551 845.199629028 l 1
EndSplineSet
Substitution2: "Single Substitution lookup 82 subtable" gy.cvc.3
Substitution2: "Single Substitution lookup 71 subtable" gy.cvc.1
Substitution2: "Single Substitution lookup 64 subtable" gy.ccv.2
Substitution2: "Single Substitution lookup 60 subtable" gy.cvc.3
Substitution2: "Single Substitution lookup 56 subtable" gy.cvc.1
Substitution2: "Single Substitution lookup 54 subtable" gy.ccv.1
Substitution2: "Single Substitution lookup 37 subtable" gy.ccv.2
Substitution2: "Single Substitution lookup 24 subtable" gy.ccv.2
EndChar

StartChar: jy
Encoding: 6 60262 6
Width: 810
VWidth: 2427
Flags: W
HStem: 529 60<102 339.134 467.704 709>
VStem: 375 60<256 528.932>
AnchorPoint: "Above" 405 230 basechar 0
LayerCount: 2
Back
SplineSet
132 559 m 1
 679 559 l 1025
405 482 m 1
 405 286 l 1025
132 832 m 1
 189 808 402 635 405 482 c 1
 402 629 608 809 679 830 c 1025
EndSplineSet
Fore
SplineSet
403.626947522 596.771726118 m 1
 465.637642829 725.128858165 601.6453397 838.405183337 670.491146744 858.768027674 c 2
 699.259174419 867.27688093 l 1
 707.768027674 838.508853256 l 1
 716.27688093 809.740825581 l 1
 687.508853256 801.231972326 l 2
 646.532718505 789.112270498 526.093612177 691.058412399 467.704388161 589 c 1
 679 589 l 1
 709 589 l 1
 709 559 l 1
 709 529 l 1
 679 529 l 1
 441.546913392 529 l 2
 441.159392466 527.635950281 440.78843437 526.274129671 440.434393254 524.914743206 c 0
 437.094709461 512.091597147 435.259686094 499.746236093 435 488.04242136 c 2
 435 482 l 1
 435 286 l 1
 435 256 l 1
 405 256 l 1
 375 256 l 1
 375 286 l 1
 375 481.690234111 l 2
 374.701870713 495.413595421 372.332732971 509.808697629 368.052214147 524.666603128 c 0
 367.636599124 526.109224684 367.202749238 527.553761052 366.751079726 529 c 2
 132 529 l 1
 102 529 l 1
 102 559 l 1
 102 589 l 1
 132 589 l 1
 339.134461385 589 l 1
 277.654376084 692.533018333 154.651923819 789.911513979 120.358289998 804.350938746 c 2
 92.7092287441 815.992648748 l 1
 104.350938746 843.641710002 l 1
 115.992648748 871.290771256 l 1
 143.641710002 859.649061254 l 1
 142.720074627 860.037118254 144.641710002 859.649061254 143.641710002 859.649061254 c 1
 197.792918044 836.848552605 338.398671748 725.79631829 403.626947522 596.771726118 c 1
EndSplineSet
Substitution2: "Single Substitution lookup 82 subtable" jy.cvc.3
Substitution2: "Single Substitution lookup 71 subtable" jy.cvc.1
Substitution2: "Single Substitution lookup 64 subtable" jy.ccv.2
Substitution2: "Single Substitution lookup 60 subtable" jy.cvc.3
Substitution2: "Single Substitution lookup 56 subtable" jy.cvc.1
Substitution2: "Single Substitution lookup 54 subtable" jy.ccv.1
Substitution2: "Single Substitution lookup 44 subtable" jy.ccv.2
EndChar

StartChar: xy
Encoding: 7 60263 7
Width: 810
VWidth: 2427
Flags: W
VStem: 375.297 60<531.561 861.901>
AnchorPoint: "Above" 405 230 basechar 0
LayerCount: 2
Back
SplineSet
405.296875 629.704101562 m 5
 405.296875 831.901367188 l 1029
678.922851562 287.9453125 m 5
 594.637695312 319.114257812 409.745117188 430.96875 405.296875 629.704101562 c 5
 409.075195312 438.76953125 234.079101562 317.8984375 133.868164062 290.143554688 c 1029
EndSplineSet
Fore
SplineSet
707.060505882 277.539909607 m 1
 696.655102989 249.402255287 l 1
 668.517448669 259.80765818 l 2
 598.958136768 285.530934794 468.346581088 360.662960535 407.498381184 491.215545167 c 1
 351.063113101 362.473779723 225.49942591 284.392788533 141.875651698 261.231962864 c 2
 112.964059875 253.224475228 l 1
 104.956572239 282.136067052 l 1
 96.9490846035 311.047658875 l 1
 125.860676427 319.055146511 l 2
 216.090427385 344.045593926 371.84363785 453.424421895 375.296875 618.224727527 c 2
 375.296875 629.704101562 l 1
 375.296875 831.901367188 l 1
 375.296875 861.901367188 l 1
 405.296875 861.901367188 l 1
 435.296875 861.901367188 l 1
 435.296875 831.901367188 l 1
 435.296875 630.048177097 l 1
 439.497431527 451.519323814 609.461549529 345.617953393 689.328254456 316.08296682 c 2
 717.465908776 305.677563926 l 1
 707.060505882 277.539909607 l 1
EndSplineSet
Substitution2: "Single Substitution lookup 82 subtable" xy.cvc.3
Substitution2: "Single Substitution lookup 71 subtable" xy.cvc.1
Substitution2: "Single Substitution lookup 64 subtable" xy.ccv.2
Substitution2: "Single Substitution lookup 60 subtable" xy.cvc.3
Substitution2: "Single Substitution lookup 56 subtable" xy.cvc.1
Substitution2: "Single Substitution lookup 54 subtable" xy.ccv.1
EndChar

StartChar: iy
Encoding: 8 60264 8
Width: 810
VWidth: 2427
Flags: W
HStem: 255.494 60<161.868 710.19>
VStem: 101.868 60<314.975 857.802>
AnchorPoint: "Above" 405 230 basechar 0
LayerCount: 2
Back
SplineSet
131.868164062 827.801757812 m 5
 131.868164062 284.9453125 l 5
 680.219726562 285.494140625 l 1029
EndSplineSet
Fore
SplineSet
131.868164062 857.801757812 m 1
 161.868164062 857.801757812 l 1
 161.868164062 827.801757812 l 1
 161.868164062 314.975353599 l 1
 680.189700505 315.494125599 l 1
 710.189685479 315.524151656 l 1
 710.219711536 285.524166682 l 1
 710.249737594 255.524181708 l 1
 680.24975262 255.494155651 l 1
 131.89819012 254.945327526 l 2
 118.966761035 254.932384859 101.868164062 266.795958086 101.868164062 284.9453125 c 2
 101.868164062 827.801757812 l 1
 101.868164062 857.801757812 l 1
 131.868164062 857.801757812 l 1
EndSplineSet
Substitution2: "Single Substitution lookup 82 subtable" iy.cvc.3
Substitution2: "Single Substitution lookup 71 subtable" iy.cvc.1
Substitution2: "Single Substitution lookup 64 subtable" iy.ccv.2
Substitution2: "Single Substitution lookup 60 subtable" iy.cvc.3
Substitution2: "Single Substitution lookup 56 subtable" iy.cvc.1
Substitution2: "Single Substitution lookup 54 subtable" iy.ccv.1
EndChar

StartChar: ry
Encoding: 9 60265 9
Width: 810
VWidth: 2427
Flags: W
AnchorPoint: "Above" 405 230 basechar 0
LayerCount: 2
Back
SplineSet
131.868164062 284.9453125 m 5
 679.12109375 832.198242188 l 1053
131.868164062 832.198242188 m 5
 679.12109375 284.9453125 l 1029
EndSplineSet
Fore
SplineSet
110.654960627 853.411445623 m 1
 131.868164062 874.624649059 l 1
 153.081367498 853.411445623 l 1
 405.494628906 600.998184215 l 1
 657.907890314 853.411445623 l 1
 679.12109375 874.624649059 l 1
 700.334297186 853.411445623 l 1
 721.547500621 832.198242188 l 1
 700.334297186 810.985038752 l 1
 447.921035777 558.571777344 l 1
 700.334297186 306.158515936 l 1
 721.547500621 284.9453125 l 1
 700.334297186 263.732109064 l 1
 679.12109375 242.518905629 l 1
 657.907890314 263.732109064 l 1
 405.494628906 516.145370473 l 1
 153.081367498 263.732109064 l 1
 131.868164062 242.518905629 l 1
 110.654960627 263.732109064 l 1
 89.4417571913 284.9453125 l 1
 110.654960627 306.158515936 l 1
 363.068222035 558.571777344 l 1
 110.654960627 810.985038752 l 1
 89.4417571913 832.198242188 l 1
 110.654960627 853.411445623 l 1
EndSplineSet
Substitution2: "Single Substitution lookup 82 subtable" ry.cvc.3
Substitution2: "Single Substitution lookup 71 subtable" ry.cvc.1
Substitution2: "Single Substitution lookup 64 subtable" ry.ccv.2
Substitution2: "Single Substitution lookup 60 subtable" ry.cvc.3
Substitution2: "Single Substitution lookup 56 subtable" ry.cvc.1
Substitution2: "Single Substitution lookup 54 subtable" ry.ccv.1
Substitution2: "Single Substitution lookup 52 subtable" ry.ccv.2
Substitution2: "Single Substitution lookup 50 subtable" ry.ccv.2
Substitution2: "Single Substitution lookup 48 subtable" ry.ccv.2
Substitution2: "Single Substitution lookup 45 subtable" ry.ccv.2
Substitution2: "Single Substitution lookup 43 subtable" ry.ccv.2
Substitution2: "Single Substitution lookup 40 subtable" ry.ccv.2
Substitution2: "Single Substitution lookup 33 subtable" ry.ccv.2
Substitution2: "Single Substitution lookup 20 subtable" ry.ccv.2
Substitution2: "Single Substitution lookup 12 subtable" ry.ccv.2
Substitution2: "Single Substitution lookup 10 subtable" ry.ccv.2
Substitution2: "Single Substitution lookup 8 subtable" ry.ccv.2
Substitution2: "Single Substitution lookup 6 subtable" ry.ccv.2
EndChar

StartChar: my
Encoding: 16 60272 16
Width: 810
VWidth: 2427
Flags: W
HStem: 254.945 60<161.868 649.121> 802.198 60<161.868 649.121>
VStem: 101.868 60<314.945 802.198> 649.121 60<314.945 802.198>
AnchorPoint: "Above" 405 230 basechar 0
LayerCount: 2
Back
SplineSet
131.868164062 832.198242188 m 5
 679.12109375 832.198242188 l 5
 679.12109375 284.9453125 l 5
 131.868164062 284.9453125 l 5
 131.868164062 832.198242188 l 5
EndSplineSet
Fore
SplineSet
131.868164062 862.198242188 m 2
 679.12109375 862.198242188 l 2
 697.280139177 862.198242188 709.12109375 845.074127387 709.12109375 832.198242188 c 2
 709.12109375 284.9453125 l 2
 709.12109375 266.786267073 691.996978949 254.9453125 679.12109375 254.9453125 c 2
 131.868164062 254.9453125 l 2
 113.709118636 254.9453125 101.868164062 272.069427301 101.868164062 284.9453125 c 2
 101.868164062 832.198242188 l 2
 101.868164062 850.357287614 118.992278863 862.198242188 131.868164062 862.198242188 c 2
161.868164062 802.198242188 m 1
 161.868164062 314.9453125 l 1
 649.12109375 314.9453125 l 1
 649.12109375 802.198242188 l 1
 161.868164062 802.198242188 l 1
EndSplineSet
Substitution2: "Single Substitution lookup 82 subtable" my.cvc.3
Substitution2: "Single Substitution lookup 71 subtable" my.cvc.1
Substitution2: "Single Substitution lookup 64 subtable" my.ccv.2
Substitution2: "Single Substitution lookup 60 subtable" my.cvc.3
Substitution2: "Single Substitution lookup 56 subtable" my.cvc.1
Substitution2: "Single Substitution lookup 54 subtable" my.ccv.1
Substitution2: "Single Substitution lookup 38 subtable" my.ccv.2
Substitution2: "Single Substitution lookup 30 subtable" my.ccv.2
Substitution2: "Single Substitution lookup 25 subtable" my.ccv.2
Substitution2: "Single Substitution lookup 17 subtable" my.ccv.2
EndChar

StartChar: by
Encoding: 17 60273 17
Width: 810
VWidth: 2427
Flags: W
HStem: 254.945 60<161.868 709.121> 802.198 60<161.868 709.121>
VStem: 101.868 60<314.945 802.198>
AnchorPoint: "Above" 405 230 basechar 0
LayerCount: 2
Back
SplineSet
679.12109375 284.9453125 m 5
 131.868164062 284.9453125 l 5
 131.868164062 832.198242188 l 5
 679.12109375 832.198242188 l 1029
EndSplineSet
Fore
SplineSet
709.12109375 284.9453125 m 1
 709.12109375 254.9453125 l 1
 679.12109375 254.9453125 l 1
 131.868164062 254.9453125 l 2
 113.709118636 254.9453125 101.868164062 272.069427301 101.868164062 284.9453125 c 2
 101.868164062 832.198242188 l 2
 101.868164062 850.357287614 118.992278863 862.198242188 131.868164062 862.198242188 c 2
 679.12109375 862.198242188 l 1
 709.12109375 862.198242188 l 1
 709.12109375 832.198242188 l 1
 709.12109375 802.198242188 l 1
 679.12109375 802.198242188 l 1
 161.868164062 802.198242188 l 1
 161.868164062 314.9453125 l 1
 679.12109375 314.9453125 l 1
 709.12109375 314.9453125 l 1
 709.12109375 284.9453125 l 1
EndSplineSet
Substitution2: "Single Substitution lookup 82 subtable" by.cvc.3
Substitution2: "Single Substitution lookup 71 subtable" by.cvc.1
Substitution2: "Single Substitution lookup 64 subtable" by.ccv.2
Substitution2: "Single Substitution lookup 60 subtable" by.cvc.3
Substitution2: "Single Substitution lookup 56 subtable" by.cvc.1
Substitution2: "Single Substitution lookup 54 subtable" by.ccv.1
Substitution2: "Single Substitution lookup 34 subtable" by.ccv.2
Substitution2: "Single Substitution lookup 21 subtable" by.ccv.2
EndChar

StartChar: py
Encoding: 18 60274 18
Width: 810
VWidth: 2427
Flags: W
HStem: 254.945 60<101.868 649.121> 802.198 60<101.868 649.121>
VStem: 649.121 60<314.945 802.198>
AnchorPoint: "Above" 405 230 basechar 0
LayerCount: 2
Back
SplineSet
131.868164062 832.198242188 m 5
 679.12109375 832.198242188 l 5
 679.12109375 284.9453125 l 5
 131.868164062 284.9453125 l 1029
EndSplineSet
Fore
SplineSet
101.868164062 832.198242188 m 1
 101.868164062 862.198242188 l 1
 131.868164062 862.198242188 l 1
 679.12109375 862.198242188 l 2
 697.280139177 862.198242188 709.12109375 845.074127387 709.12109375 832.198242188 c 2
 709.12109375 284.9453125 l 2
 709.12109375 266.786267073 691.996978949 254.9453125 679.12109375 254.9453125 c 2
 131.868164062 254.9453125 l 1
 101.868164062 254.9453125 l 1
 101.868164062 284.9453125 l 1
 101.868164062 314.9453125 l 1
 131.868164062 314.9453125 l 1
 649.12109375 314.9453125 l 1
 649.12109375 802.198242188 l 1
 131.868164062 802.198242188 l 1
 101.868164062 802.198242188 l 1
 101.868164062 832.198242188 l 1
EndSplineSet
Substitution2: "Single Substitution lookup 82 subtable" py.cvc.3
Substitution2: "Single Substitution lookup 71 subtable" py.cvc.1
Substitution2: "Single Substitution lookup 64 subtable" py.ccv.2
Substitution2: "Single Substitution lookup 60 subtable" py.cvc.3
Substitution2: "Single Substitution lookup 56 subtable" py.cvc.1
Substitution2: "Single Substitution lookup 54 subtable" py.ccv.1
Substitution2: "Single Substitution lookup 26 subtable" py.ccv.2
Substitution2: "Single Substitution lookup 13 subtable" py.ccv.2
EndChar

StartChar: vy
Encoding: 19 60275 19
Width: 810
VWidth: 2427
Flags: W
HStem: 255.494 60<161.868 390.238>
VStem: 101.868 60<315.494 862.198>
AnchorPoint: "Above" 405 230 basechar 0
LayerCount: 2
Back
SplineSet
131.868164062 832.198242188 m 5
 131.868164062 285.494140625 l 5
 405.494140625 285.494140625 l 5
 480.248046875 527.5859375 543.504882812 661.475585938 679.12109375 832.198242188 c 1029
EndSplineSet
Fore
SplineSet
131.868164062 862.198242188 m 1
 161.868164062 862.198242188 l 1
 161.868164062 832.198242188 l 1
 161.868164062 315.494140625 l 1
 383.417696602 315.494140625 l 1
 456.383121411 547.410086631 521.818800292 682.407127706 655.630605541 850.858278728 c 2
 674.290642082 874.348766937 l 1
 697.781130291 855.688730396 l 1
 721.2716185 837.028693856 l 1
 702.611581959 813.538205647 l 2
 569.117066982 645.486480605 508.490943474 517.369215286 434.15870638 276.643001145 c 0
 430.561046471 264.991918338 418.843631191 255.494140625 405.494140625 255.494140625 c 2
 131.868164062 255.494140625 l 2
 118.992278863 255.494140625 101.868164062 267.335095198 101.868164062 285.494140625 c 2
 101.868164062 832.198242188 l 1
 101.868164062 862.198242188 l 1
 131.868164062 862.198242188 l 1
EndSplineSet
Substitution2: "Single Substitution lookup 82 subtable" vy.cvc.3
Substitution2: "Single Substitution lookup 71 subtable" vy.cvc.1
Substitution2: "Single Substitution lookup 64 subtable" vy.ccv.2
Substitution2: "Single Substitution lookup 60 subtable" vy.cvc.3
Substitution2: "Single Substitution lookup 56 subtable" vy.cvc.1
Substitution2: "Single Substitution lookup 54 subtable" vy.ccv.1
Substitution2: "Single Substitution lookup 35 subtable" vy.ccv.2
Substitution2: "Single Substitution lookup 22 subtable" vy.ccv.2
EndChar

StartChar: fy
Encoding: 20 60276 20
Width: 810
VWidth: 2427
Flags: W
HStem: 802.198 60<357.502 649.121>
VStem: 649.121 60<254.945 802.198>
AnchorPoint: "Above" 405 230 basechar 0
LayerCount: 2
Back
SplineSet
131.868164062 284.9453125 m 5
 229.8125 407.999023438 291.185546875 483.153320312 332.966796875 832.198242188 c 5
 679.12109375 832.198242188 l 5
 679.12109375 284.9453125 l 1029
EndSplineSet
Fore
SplineSet
113.185366276 261.472923042 m 1
 89.712976818 280.155720829 l 1
 108.395774605 303.628110287 l 2
 205.400829032 425.501742005 261.688442959 489.143705175 303.17944167 835.763837492 c 0
 305.057773328 851.455616144 319.629260306 862.198242188 332.966796875 862.198242188 c 2
 679.12109375 862.198242188 l 2
 697.280139177 862.198242188 709.12109375 845.074127387 709.12109375 832.198242188 c 2
 709.12109375 284.9453125 l 1
 709.12109375 254.9453125 l 1
 679.12109375 254.9453125 l 1
 649.12109375 254.9453125 l 1
 649.12109375 284.9453125 l 1
 649.12109375 802.198242188 l 1
 359.487033139 802.198242188 l 1
 317.508107753 473.919070614 251.514665021 387.09217988 155.34055352 266.262514713 c 2
 136.657755734 242.790125255 l 1
 113.185366276 261.472923042 l 1
EndSplineSet
Substitution2: "Single Substitution lookup 82 subtable" fy.cvc.3
Substitution2: "Single Substitution lookup 71 subtable" fy.cvc.1
Substitution2: "Single Substitution lookup 64 subtable" fy.ccv.2
Substitution2: "Single Substitution lookup 60 subtable" fy.cvc.3
Substitution2: "Single Substitution lookup 56 subtable" fy.cvc.1
Substitution2: "Single Substitution lookup 54 subtable" fy.ccv.1
Substitution2: "Single Substitution lookup 27 subtable" fy.ccv.2
Substitution2: "Single Substitution lookup 14 subtable" fy.ccv.2
EndChar

StartChar: ky
Encoding: 21 60277 21
Width: 810
VWidth: 2427
Flags: W
AnchorPoint: "Above" 405 230 basechar 0
LayerCount: 2
Back
SplineSet
131.868164062 835.494140625 m 5
 682.41796875 569.560546875 l 5
 131.868164062 284.9453125 l 1029
EndSplineSet
Fore
SplineSet
104.854515037 848.542618173 m 1
 117.902992585 875.556267199 l 1
 144.916641611 862.507789651 l 1
 144.016186643 862.942738902 143.916641611 862.507789651 144.916641611 862.507789651 c 1
 695.466446298 596.574195901 l 2
 710.994328157 589.073720211 717.020230234 569.32443077 708.324602467 554.432879194 c 0
 705.391627447 549.410061987 698.497540158 544.101426398 696.19485494 542.911017669 c 2
 145.645050252 258.295783294 l 1
 118.995521046 244.518897104 l 1
 105.218634856 271.16842631 l 1
 91.4417486665 297.817955516 l 1
 118.091277873 311.594841706 l 1
 615.329655004 568.649909282 l 1
 118.819686514 808.480491599 l 1
 91.8060374888 821.528969148 l 1
 104.854515037 848.542618173 l 1
EndSplineSet
Substitution2: "Single Substitution lookup 82 subtable" ky.cvc.3
Substitution2: "Single Substitution lookup 71 subtable" ky.cvc.1
Substitution2: "Single Substitution lookup 64 subtable" ky.ccv.2
Substitution2: "Single Substitution lookup 60 subtable" ky.cvc.3
Substitution2: "Single Substitution lookup 56 subtable" ky.cvc.1
Substitution2: "Single Substitution lookup 54 subtable" ky.ccv.1
Substitution2: "Single Substitution lookup 29 subtable" ky.ccv.2
Substitution2: "Single Substitution lookup 16 subtable" ky.ccv.2
EndChar

StartChar: cy
Encoding: 22 60278 22
Width: 810
VWidth: 2427
Flags: W
HStem: 529 60<102 336.779 469.74 709>
VStem: 375 60<589.174 862>
AnchorPoint: "Above" 405 230 basechar 0
LayerCount: 2
Back
SplineSet
132 559 m 5
 679 559 l 1029
405 646 m 5
 405 832 l 1029
132 285 m 5
 189 311 402 483 405 646 c 5
 402 489 608 308 679 285 c 1029
EndSplineSet
Fore
SplineSet
102 559 m 1
 102 589 l 1
 132 589 l 1
 364.608681233 589 l 2
 365.833870032 592.715526878 366.957354387 596.428548035 367.973187259 600.136226795 c 0
 372.284191768 615.870921241 374.698659736 631.310211057 375 646.288796947 c 2
 375 832 l 1
 375 862 l 1
 405 862 l 1
 435 862 l 1
 435 832 l 1
 435 646 l 1
 435 639.497096421 l 2
 435.26231143 626.740667583 437.126091748 613.488621964 440.477032971 599.881473631 c 0
 441.367925803 596.263830075 442.365394599 592.635638051 443.463851579 589 c 2
 679 589 l 1
 709 589 l 1
 709 559 l 1
 709 529 l 1
 679 529 l 1
 469.740347681 529 l 1
 528.853478709 423.905501557 647.114947959 326.863791208 688.245310326 313.539871005 c 2
 716.785181331 304.294560679 l 1
 707.539871005 275.754689674 l 1
 698.294560679 247.214818669 l 1
 669.754689674 256.460128995 l 2
 601.734041688 278.494986793 465.607209288 392.527455306 403.540082618 525.92294075 c 1
 338.547475757 392.280749464 197.490111402 281.899092694 144.450155398 257.705428551 c 1
 143.450155398 257.705428551 143.540336349 257.290423371 144.450155398 257.705428551 c 1
 117.155583949 245.255273154 l 1
 104.705428551 272.549844602 l 1
 92.2552731535 299.844416051 l 1
 119.549844602 312.294571449 l 2
 154.373014448 328.178824361 274.627341523 423.235368379 336.778846382 529 c 1
 132 529 l 1
 102 529 l 1
 102 559 l 1
EndSplineSet
Substitution2: "Single Substitution lookup 82 subtable" cy.cvc.3
Substitution2: "Single Substitution lookup 71 subtable" cy.cvc.1
Substitution2: "Single Substitution lookup 64 subtable" cy.ccv.2
Substitution2: "Single Substitution lookup 60 subtable" cy.cvc.3
Substitution2: "Single Substitution lookup 56 subtable" cy.cvc.1
Substitution2: "Single Substitution lookup 54 subtable" cy.ccv.1
Substitution2: "Single Substitution lookup 39 subtable" cy.ccv.2
EndChar

StartChar: yhy
Encoding: 23 60279 23
Width: 810
VWidth: 2427
Flags: W
VStem: 101.868 60<356.963 858.901> 652.418 60<254.945 759.081>
AnchorPoint: "Above" 405 230 basechar 0
LayerCount: 2
Back
SplineSet
131.868164062 828.901367188 m 29
 131.868164062 284.9453125 l 5
 682.41796875 831.098632812 l 29
 682.41796875 284.9453125 l 1029
EndSplineSet
Fore
SplineSet
131.868164062 858.901367188 m 1
 161.868164062 858.901367188 l 1
 161.868164062 828.901367188 l 1
 161.868164062 356.963089472 l 1
 661.289974978 852.396705006 l 2
 673.53245094 864.541417144 694.161263295 863.648091853 705.308030277 850.490514704 c 0
 709.886486599 845.086132216 712.41796875 837.972302996 712.41796875 831.098632812 c 2
 712.41796875 284.9453125 l 1
 712.41796875 254.9453125 l 1
 682.41796875 254.9453125 l 1
 652.41796875 254.9453125 l 1
 652.41796875 284.9453125 l 1
 652.41796875 759.08085584 l 1
 152.996157835 263.647240306 l 2
 148.228428686 258.917584455 141.297674345 255.594650743 134.221876626 255.037787742 c 0
 117.030548246 253.684835737 101.868164062 267.700827857 101.868164062 284.9453125 c 2
 101.868164062 828.901367188 l 1
 101.868164062 858.901367188 l 1
 131.868164062 858.901367188 l 1
EndSplineSet
Substitution2: "Single Substitution lookup 82 subtable" yhy.cvc.3
Substitution2: "Single Substitution lookup 71 subtable" yhy.cvc.1
Substitution2: "Single Substitution lookup 64 subtable" yhy.ccv.2
Substitution2: "Single Substitution lookup 60 subtable" yhy.cvc.3
Substitution2: "Single Substitution lookup 56 subtable" yhy.cvc.1
Substitution2: "Single Substitution lookup 54 subtable" yhy.ccv.1
EndChar

StartChar: uy
Encoding: 24 60280 24
Width: 810
VWidth: 2427
Flags: W
HStem: 255.494 60<101.868 652.418>
VStem: 652.418 60<315.494 864.396>
AnchorPoint: "Above" 405 230 basechar 0
LayerCount: 2
Back
SplineSet
131.868164062 285.494140625 m 5
 682.41796875 285.494140625 l 5
 682.41796875 834.395507812 l 1029
EndSplineSet
Fore
SplineSet
101.868164062 285.494140625 m 1
 101.868164062 315.494140625 l 1
 131.868164062 315.494140625 l 1
 652.41796875 315.494140625 l 1
 652.41796875 834.395507812 l 1
 652.41796875 864.395507812 l 1
 682.41796875 864.395507812 l 1
 712.41796875 864.395507812 l 1
 712.41796875 834.395507812 l 1
 712.41796875 285.494140625 l 2
 712.41796875 272.618255426 700.577014177 255.494140625 682.41796875 255.494140625 c 2
 131.868164062 255.494140625 l 1
 101.868164062 255.494140625 l 1
 101.868164062 285.494140625 l 1
EndSplineSet
Substitution2: "Single Substitution lookup 82 subtable" uy.cvc.3
Substitution2: "Single Substitution lookup 71 subtable" uy.cvc.1
Substitution2: "Single Substitution lookup 64 subtable" uy.ccv.2
Substitution2: "Single Substitution lookup 60 subtable" uy.cvc.3
Substitution2: "Single Substitution lookup 56 subtable" uy.cvc.1
Substitution2: "Single Substitution lookup 54 subtable" uy.ccv.1
EndChar

StartChar: ly
Encoding: 25 60281 25
Width: 810
VWidth: 2427
Flags: W
HStem: 254.945 60<161.868 709.121> 528.571 60<161.868 649.121> 802.198 60<101.868 649.121>
VStem: 101.868 60<314.945 528.571> 649.121 60<588.571 802.198>
AnchorPoint: "Above" 405 230 basechar 0
LayerCount: 2
Back
SplineSet
131.868164062 832.198242188 m 5
 679.12109375 832.198242188 l 5
 679.12109375 558.571289062 l 5
 131.868164062 558.571289062 l 5
 131.868164062 284.9453125 l 5
 679.12109375 284.9453125 l 1029
EndSplineSet
Fore
SplineSet
101.868164062 832.198242188 m 1
 101.868164062 862.198242188 l 1
 131.868164062 862.198242188 l 1
 679.12109375 862.198242188 l 2
 697.280139177 862.198242188 709.12109375 845.074127387 709.12109375 832.198242188 c 2
 709.12109375 558.571289062 l 2
 709.12109375 540.412243636 691.996978949 528.571289062 679.12109375 528.571289062 c 2
 161.868164062 528.571289062 l 1
 161.868164062 314.9453125 l 1
 679.12109375 314.9453125 l 1
 709.12109375 314.9453125 l 1
 709.12109375 284.9453125 l 1
 709.12109375 254.9453125 l 1
 679.12109375 254.9453125 l 1
 131.868164062 254.9453125 l 2
 118.992278863 254.9453125 101.868164062 266.786267073 101.868164062 284.9453125 c 2
 101.868164062 558.571289062 l 2
 101.868164062 571.447174262 113.709118636 588.571289062 131.868164062 588.571289062 c 2
 649.12109375 588.571289062 l 1
 649.12109375 802.198242188 l 1
 131.868164062 802.198242188 l 1
 101.868164062 802.198242188 l 1
 101.868164062 832.198242188 l 1
EndSplineSet
Substitution2: "Single Substitution lookup 82 subtable" ly.cvc.3
Substitution2: "Single Substitution lookup 71 subtable" ly.cvc.1
Substitution2: "Single Substitution lookup 64 subtable" ly.ccv.2
Substitution2: "Single Substitution lookup 60 subtable" ly.cvc.3
Substitution2: "Single Substitution lookup 56 subtable" ly.cvc.1
Substitution2: "Single Substitution lookup 54 subtable" ly.ccv.1
Substitution2: "Single Substitution lookup 51 subtable" ly.ccv.2
Substitution2: "Single Substitution lookup 49 subtable" ly.ccv.2
Substitution2: "Single Substitution lookup 47 subtable" ly.ccv.2
Substitution2: "Single Substitution lookup 42 subtable" ly.ccv.2
Substitution2: "Single Substitution lookup 32 subtable" ly.ccv.2
Substitution2: "Single Substitution lookup 19 subtable" ly.ccv.2
Substitution2: "Single Substitution lookup 11 subtable" ly.ccv.2
Substitution2: "Single Substitution lookup 9 subtable" ly.ccv.2
Substitution2: "Single Substitution lookup 7 subtable" ly.ccv.2
Substitution2: "Single Substitution lookup 5 subtable" ly.ccv.2
EndChar

StartChar: denpabu
Encoding: 31 60287 31
Width: 810
VWidth: 230
Flags: W
HStem: 254 60<306.318 503.682> 802 60<306.318 503.682>
VStem: 102 60<459.172 656.828> 648 60<459.172 656.828>
AnchorPoint: "Above" 405 230 basechar 0
LayerCount: 2
Back
SplineSet
132 558 m 4
 132 709 254 832 405 832 c 4
 556 832 678 709 678 558 c 4
 678 407 556 284 405 284 c 4
 254 284 132 407 132 558 c 4
EndSplineSet
Fore
SplineSet
102 558 m 0
 102 725.442061675 237.306021451 862 405 862 c 0
 572.693981776 862 708 725.442059946 708 558 c 0
 708 390.557938325 572.693978549 254 405 254 c 0
 237.306018224 254 102 390.557940054 102 558 c 0
162 558 m 0
 162 423.442059946 270.693981776 314 405 314 c 0
 539.306021451 314 648 423.442061675 648 558 c 0
 648 692.557940054 539.306018224 802 405 802 c 0
 270.693978549 802 162 692.557938325 162 558 c 0
EndSplineSet
Substitution2: "Single Substitution lookup 77 subtable" denpabu.cvc.1
Substitution2: "Single Substitution lookup 75 subtable" denpabu.cvc.3
Substitution2: "Single Substitution lookup 66 subtable" denpabu.ccv.1
EndChar

StartChar: ebu.cv
Encoding: 42 -1 32
Width: 0
VWidth: 230
Flags: W
HStem: 106 60<162 709>
VStem: 102 60<-143 106>
AnchorPoint: "Above" 405 230 mark 0
LayerCount: 2
Back
SplineSet
679 136 m 29
 132 136 l 29
 132 -113 l 1053
EndSplineSet
Fore
SplineSet
709 136 m 1
 709 106 l 1
 679 106 l 1
 162 106 l 1
 162 -113 l 1
 162 -143 l 1
 132 -143 l 1
 102 -143 l 1
 102 -113 l 1
 102 136 l 2
 102 148.875885199 113.840954573 166 132 166 c 2
 679 166 l 1
 709 166 l 1
 709 136 l 1
EndSplineSet
Substitution2: "Single Substitution lookup 73 subtable" ebu.cvc
Substitution2: "Single Substitution lookup 69 subtable" ebu.ccv
EndChar

StartChar: obu.cv
Encoding: 43 -1 33
Width: 0
VWidth: 230
Flags: W
HStem: 106 60<102 649>
VStem: 649 60<-143 106>
AnchorPoint: "Above" 405 230 mark 0
LayerCount: 2
Back
SplineSet
132 136 m 29
 679 136 l 29
 679 -113 l 1053
EndSplineSet
Fore
SplineSet
102 136 m 1
 102 166 l 1
 132 166 l 1
 679 166 l 2
 697.159045427 166 709 148.875885199 709 136 c 2
 709 -113 l 1
 709 -143 l 1
 679 -143 l 1
 649 -143 l 1
 649 -113 l 1
 649 106 l 1
 132 106 l 1
 102 106 l 1
 102 136 l 1
EndSplineSet
Substitution2: "Single Substitution lookup 73 subtable" obu.cvc
Substitution2: "Single Substitution lookup 69 subtable" obu.ccv
EndChar

StartChar: ibu.cv
Encoding: 44 -1 34
Width: 0
VWidth: 230
Flags: W
HStem: 106.594 60<162 375 435 709>
VStem: 102 60<-142.857 106.594> 375 60<-46 106.594>
AnchorPoint: "Above" 405 230 mark 0
LayerCount: 2
Back
SplineSet
405 136 m 29
 405 -16 l 1029
679 136.59375 m 5
 132 136.59375 l 5
 132 -112.857421875 l 1029
EndSplineSet
Fore
SplineSet
709 136.59375 m 1
 709 106.59375 l 1
 679 106.59375 l 1
 435 106.59375 l 1
 435 -16 l 1
 435 -46 l 1
 405 -46 l 1
 375 -46 l 1
 375 -16 l 1
 375 106.59375 l 1
 162 106.59375 l 1
 162 -112.857421875 l 1
 162 -142.857421875 l 1
 132 -142.857421875 l 1
 102 -142.857421875 l 1
 102 -112.857421875 l 1
 102 136.59375 l 2
 102 149.469635199 113.840954573 166.59375 132 166.59375 c 2
 679 166.59375 l 1
 709 166.59375 l 1
 709 136.59375 l 1
EndSplineSet
Substitution2: "Single Substitution lookup 73 subtable" ibu.cvc
Substitution2: "Single Substitution lookup 69 subtable" ibu.ccv
EndChar

StartChar: ny.cvc.1
Encoding: 32 -1 35
Width: 810
VWidth: 230
Flags: W
HStem: 472.747 60<224.835 586.154> 637.473 60<224.835 586.154> 802.198 60<224.835 586.154>
VStem: 164.835 60<532.747 637.473 697.473 802.198> 586.154 60<532.747 637.473 697.473 802.198>
CounterMasks: 1 e0
AnchorPoint: "Above" 405 230 basechar 0
LayerCount: 2
Back
SplineSet
194.834960938 832.198242188 m 1
 616.154296875 832.198242188 l 1
 616.154296875 502.747070312 l 1
 194.834960938 502.747070312 l 1
 194.834960938 832.198242188 l 1
194.834960938 667.47265625 m 1
 616.154296875 667.47265625 l 1025
194.834960938 832.198242188 m 1
 616.154296875 832.198242188 l 1
 616.154296875 502.747070312 l 1
 194.834960938 502.747070312 l 1
 194.834960938 832.198242188 l 1
194.834960938 667.47265625 m 1
 616.154296875 667.47265625 l 1025
EndSplineSet
Fore
SplineSet
164.834960938 832.198242188 m 2
 164.834960938 850.357287614 181.959075738 862.198242188 194.834960938 862.198242188 c 2
 616.154296875 862.198242188 l 2
 634.313342302 862.198242188 646.154296875 845.074127387 646.154296875 832.198242188 c 2
 646.154296875 697.47265625 l 1
 646.154296875 667.47265625 l 1
 646.154296875 637.47265625 l 1
 646.154296875 502.747070312 l 2
 646.154296875 484.588024886 629.030182074 472.747070312 616.154296875 472.747070312 c 2
 194.834960938 472.747070312 l 2
 176.675915511 472.747070312 164.834960938 489.871185113 164.834960938 502.747070312 c 2
 164.834960938 637.47265625 l 1
 164.834960938 667.47265625 l 1
 164.834960938 697.47265625 l 1
 164.834960938 832.198242188 l 2
586.154296875 802.198242188 m 1
 224.834960938 802.198242188 l 1
 224.834960938 697.47265625 l 1
 586.154296875 697.47265625 l 1
 586.154296875 802.198242188 l 1
586.154296875 637.47265625 m 1
 224.834960938 637.47265625 l 1
 224.834960938 532.747070312 l 1
 586.154296875 532.747070312 l 1
 586.154296875 637.47265625 l 1
EndSplineSet
EndChar

StartChar: ny.ccv.1
Encoding: 96 -1 36
Width: 810
VWidth: 230
Flags: W
HStem: 255 60<134 315> 529 60<134 315> 802 60<134 315>
VStem: 74 60<315 529 589 802> 315 60<315 529 589 802>
AnchorPoint: "Above" 405 230 basechar 0
LayerCount: 2
Back
SplineSet
345 559 m 5
 105 559 l 1029
104 832 m 5
 345 832 l 5
 345 285 l 5
 104 285 l 5
 104 832 l 5
EndSplineSet
Fore
SplineSet
104 862 m 2
 345 862 l 2
 363.159045427 862 375 844.875885199 375 832 c 2
 375 589 l 1
 375 559 l 1
 375 529 l 1
 375 285 l 2
 375 266.840954573 357.875885199 255 345 255 c 2
 104 255 l 2
 85.8409545734 255 74 272.124114801 74 285 c 2
 74 832 l 2
 74 850.159045427 91.1241148008 862 104 862 c 2
134 589 m 1
 315 589 l 1
 315 802 l 1
 134 802 l 1
 134 589 l 1
134 529 m 1
 134 315 l 1
 315 315 l 1
 315 529 l 1
 134 529 l 1
EndSplineSet
EndChar

StartChar: ebu.ccv
Encoding: 106 -1 38
Width: 0
VWidth: 230
Flags: W
HStem: 106 60<134 375 435 738>
VStem: 74 60<-143 106> 375 60<-46 106>
AnchorPoint: "Above" 405 230 mark 0
LayerCount: 2
Back
SplineSet
405 136 m 5
 405 -16 l 1029
708 136 m 5
 104 136 l 5
 104 -113 l 1053
EndSplineSet
Fore
SplineSet
738 136 m 1
 738 106 l 1
 708 106 l 1
 435 106 l 1
 435 -16 l 1
 435 -46 l 1
 405 -46 l 1
 375 -46 l 1
 375 -16 l 1
 375 106 l 1
 134 106 l 1
 134 -113 l 1
 134 -143 l 1
 104 -143 l 1
 74 -143 l 1
 74 -113 l 1
 74 136 l 2
 74 148.875885199 85.8409545734 166 104 166 c 2
 375 166 l 1
 405 166 l 1
 435 166 l 1
 708 166 l 1
 738 166 l 1
 738 136 l 1
EndSplineSet
EndChar

StartChar: dy.cvc.1
Encoding: 33 -1 40
Width: 810
VWidth: 230
Flags: W
HStem: 472.747 60<224.835 646.154> 637.473 60<224.835 645.055> 802.198 60<224.835 646.154>
VStem: 164.835 60<532.747 637.473 697.473 802.198>
CounterMasks: 1 e0
AnchorPoint: "Above" 405 230 basechar 0
LayerCount: 2
Back
SplineSet
194.834960938 667.47265625 m 5
 615.0546875 667.47265625 l 1025
616.154296875 502.747070312 m 1
 194.834960938 502.747070312 l 5
 194.834960938 832.198242188 l 5
 616.154296875 832.198242188 l 1025
EndSplineSet
Fore
SplineSet
646.154296875 502.747070312 m 1
 646.154296875 472.747070312 l 1
 616.154296875 472.747070312 l 1
 194.834960938 472.747070312 l 2
 176.675915511 472.747070312 164.834960938 489.871185113 164.834960938 502.747070312 c 2
 164.834960938 637.47265625 l 1
 164.834960938 667.47265625 l 1
 164.834960938 697.47265625 l 1
 164.834960938 832.198242188 l 2
 164.834960938 850.357287614 181.959075738 862.198242188 194.834960938 862.198242188 c 2
 616.154296875 862.198242188 l 1
 646.154296875 862.198242188 l 1
 646.154296875 832.198242188 l 1
 646.154296875 802.198242188 l 1
 616.154296875 802.198242188 l 1
 224.834960938 802.198242188 l 1
 224.834960938 697.47265625 l 1
 615.0546875 697.47265625 l 1
 645.0546875 697.47265625 l 1
 645.0546875 667.47265625 l 1
 645.0546875 637.47265625 l 1
 615.0546875 637.47265625 l 1
 224.834960938 637.47265625 l 1
 224.834960938 532.747070312 l 1
 616.154296875 532.747070312 l 1
 646.154296875 532.747070312 l 1
 646.154296875 502.747070312 l 1
EndSplineSet
EndChar

StartChar: ty.cvc.1
Encoding: 34 -1 41
Width: 810
VWidth: 230
Flags: W
HStem: 472.747 60<164.835 586.154> 637.473 60<165.934 586.154> 802.198 60<164.835 586.154>
VStem: 586.154 60<532.747 637.473 697.473 802.198>
CounterMasks: 1 e0
AnchorPoint: "Above" 405 230 basechar 0
LayerCount: 2
Back
SplineSet
616.154296875 667.47265625 m 5
 195.93359375 667.47265625 l 1025
194.834960938 832.198242188 m 1
 616.154296875 832.198242188 l 5
 616.154296875 502.747070312 l 5
 194.834960938 502.747070312 l 1025
EndSplineSet
Fore
SplineSet
164.834960938 832.198242188 m 1
 164.834960938 862.198242188 l 1
 194.834960938 862.198242188 l 1
 616.154296875 862.198242188 l 2
 634.313342302 862.198242188 646.154296875 845.074127387 646.154296875 832.198242188 c 2
 646.154296875 697.47265625 l 1
 646.154296875 667.47265625 l 1
 646.154296875 637.47265625 l 1
 646.154296875 502.747070312 l 2
 646.154296875 484.588024886 629.030182074 472.747070312 616.154296875 472.747070312 c 2
 194.834960938 472.747070312 l 1
 164.834960938 472.747070312 l 1
 164.834960938 502.747070312 l 1
 164.834960938 532.747070312 l 1
 194.834960938 532.747070312 l 1
 586.154296875 532.747070312 l 1
 586.154296875 637.47265625 l 1
 195.93359375 637.47265625 l 1
 165.93359375 637.47265625 l 1
 165.93359375 667.47265625 l 1
 165.93359375 697.47265625 l 1
 195.93359375 697.47265625 l 1
 586.154296875 697.47265625 l 1
 586.154296875 802.198242188 l 1
 194.834960938 802.198242188 l 1
 164.834960938 802.198242188 l 1
 164.834960938 832.198242188 l 1
EndSplineSet
EndChar

StartChar: zy.cvc.1
Encoding: 35 -1 42
Width: 810
VWidth: 230
Flags: W
HStem: 472.747 60<224.835 536.015> 637.473 60<224.835 542.048>
VStem: 164.835 60<532.747 637.473 697.473 862.198>
AnchorPoint: "Above" 405 230 basechar 0
LayerCount: 2
Back
SplineSet
553.516601562 667.47265625 m 29
 198.131835938 667.47265625 l 1053
194.834960938 832.198242188 m 29
 194.834960938 502.747070312 l 29
 564.725585938 502.747070312 l 21
 569.625976562 568 556.89453125 701.34765625 640.110351562 832.198242188 c 1037
EndSplineSet
Fore
SplineSet
194.834960938 862.198242188 m 1
 224.834960938 862.198242188 l 1
 224.834960938 832.198242188 l 1
 224.834960938 697.47265625 l 1
 552.369726594 697.47265625 l 1
 563.308166458 745.30648404 582.093844737 796.875755731 614.79588705 848.297244841 c 2
 630.894889703 873.611709354 l 1
 656.209354216 857.5127067 l 1
 681.523818729 841.413704047 l 1
 665.424816075 816.099239534 l 2
 587.730742927 693.931183543 599.931332401 570.941184285 594.641345547 500.500444626 c 0
 593.483147901 485.078043567 580.228685833 472.747070312 564.725585938 472.747070312 c 2
 194.834960938 472.747070312 l 2
 181.959075738 472.747070312 164.834960938 484.588024886 164.834960938 502.747070312 c 2
 164.834960938 832.198242188 l 1
 164.834960938 862.198242188 l 1
 194.834960938 862.198242188 l 1
224.834960938 637.47265625 m 1
 224.834960938 532.747070312 l 1
 536.015446755 532.747070312 l 1
 536.774306152 560.956190792 537.18138634 596.890893894 542.048136031 637.47265625 c 1
 224.834960938 637.47265625 l 1
EndSplineSet
EndChar

StartChar: sy.cvc.1
Encoding: 36 -1 43
Width: 810
VWidth: 230
Flags: W
HStem: 637.473 60<269.897 587.11> 802.198 60<275.93 587.11>
VStem: 587.11 60<472.747 637.473 697.473 802.198>
AnchorPoint: "Above" 405 230 basechar 0
LayerCount: 2
Back
SplineSet
258.428710938 667.47265625 m 25
 613.813476562 667.47265625 l 1049
617.110351562 502.747070312 m 25
 617.110351562 832.198242188 l 25
 247.219726562 832.198242188 l 17
 242.319335938 766.9453125 255.05078125 633.59765625 171.834960938 502.747070312 c 1033
EndSplineSet
Fore
SplineSet
617.110351562 472.747070312 m 1
 587.110351562 472.747070312 l 1
 587.110351562 502.747070312 l 1
 587.110351562 637.47265625 l 1
 259.575585906 637.47265625 l 1
 248.637146042 589.63882846 229.851467763 538.069556769 197.14942545 486.648067659 c 2
 181.050422797 461.333603146 l 1
 155.735958284 477.4326058 l 1
 130.421493771 493.531608453 l 1
 146.520496425 518.846072966 l 2
 224.214569573 641.014128957 212.013980099 764.004128215 217.303966953 834.444867874 c 0
 218.462164599 849.867268933 231.716626667 862.198242188 247.219726562 862.198242188 c 2
 617.110351562 862.198242188 l 2
 629.986236762 862.198242188 647.110351562 850.357287614 647.110351562 832.198242188 c 2
 647.110351562 502.747070312 l 1
 647.110351562 472.747070312 l 1
 617.110351562 472.747070312 l 1
146.520496425 518.846072966 m 1
 147.057129847 519.68988845 146.520496425 519.846072966 146.520496425 518.846072966 c 1
587.110351562 697.47265625 m 1
 587.110351562 802.198242188 l 1
 275.929865745 802.198242188 l 1
 275.171006348 773.989121708 274.76392616 738.054418606 269.897176469 697.47265625 c 1
 587.110351562 697.47265625 l 1
EndSplineSet
EndChar

StartChar: gy.cvc.1
Encoding: 37 -1 44
Width: 810
VWidth: 230
Flags: W
AnchorPoint: "Above" 405 230 basechar 0
LayerCount: 2
Back
SplineSet
618.3515625 834.395507812 m 1
 193.736328125 668.571289062 l 1
 618.3515625 500.549804688 l 1025
EndSplineSet
Fore
SplineSet
646.296199753 845.308676408 m 1
 657.209368348 817.364039154 l 1
 629.264731095 806.450870559 l 1
 275.734955586 668.387527366 l 1
 629.389870603 528.445247939 l 1
 657.285313855 517.406939836 l 1
 646.247005752 489.511496584 l 1
 635.208697648 461.616053332 l 1
 607.313254397 472.654361436 l 1
 182.698020022 640.675845811 l 2
 176.017395704 643.319388302 170.005640005 648.74130217 166.734045842 655.499305605 c 0
 159.220058576 671.020653677 166.760130598 690.242860708 182.82315953 696.515926316 c 2
 607.438393905 862.340145066 l 1
 635.383031158 873.253313661 l 1
 646.296199753 845.308676408 l 1
EndSplineSet
EndChar

StartChar: jy.cvc.1
Encoding: 38 -1 45
Width: 810
VWidth: 230
Flags: W
HStem: 637 60<165 336.679 467.053 645>
VStem: 375 60<473 636.704>
AnchorPoint: "Above" 405 230 basechar 0
LayerCount: 2
Back
SplineSet
195 667 m 5
 615 667 l 1029
405 539 m 5
 405 503 l 1029
195 832 m 5
 275 798 401 758 405 539 c 5
 401 749 516 801 616 832 c 1029
EndSplineSet
Fore
SplineSet
167.390072446 843.73421921 m 1
 179.124291657 871.344146764 l 1
 206.73421921 859.609927554 l 2
 261.354148277 836.3964577 353.588082473 805.063761198 402.279138544 700.723768752 c 1
 447.281450922 804.107171543 535.634950412 838.495272984 607.117036867 860.654719785 c 2
 635.771756652 869.537682919 l 1
 644.654719785 840.882963133 l 1
 653.537682919 812.228243348 l 1
 624.882963133 803.345280215 l 2
 562.983771993 784.156530961 502.640941014 760.153255734 467.053150988 697 c 1
 615 697 l 1
 645 697 l 1
 645 667 l 1
 645 637 l 1
 615 637 l 1
 444.19060617 637 l 1
 442.728291466 630.855604104 441.421767058 624.468003386 440.27930424 617.824955828 c 0
 437.286553688 600.423090365 435.438282631 581.078854926 435 559.574674218 c 2
 435 539 l 1
 435 503 l 1
 435 473 l 1
 405 473 l 1
 375 473 l 1
 375 503 l 1
 375 538.722057197 l 2
 374.437463199 568.671493387 371.472465857 594.661956555 366.734227881 617.256342806 c 0
 365.294895572 624.119828835 363.695325357 630.695846646 361.946105065 637 c 1
 195 637 l 1
 165 637 l 1
 165 667 l 1
 165 697 l 1
 195 697 l 1
 336.67919617 697 l 1
 297.764274486 761.328289904 236.27057755 781.863033823 183.26578079 804.390072446 c 2
 155.655853236 816.124291657 l 1
 167.390072446 843.73421921 l 1
EndSplineSet
EndChar

StartChar: xy.cvc.1
Encoding: 39 -1 46
Width: 810
VWidth: 230
Flags: W
VStem: 375.495 60<660.987 862.198>
AnchorPoint: "Above" 405 230 basechar 0
LayerCount: 2
Back
SplineSet
405.495117188 772.307617188 m 1
 405.495117188 832.198242188 l 1025
616.154296875 502.747070312 m 1
 531.869140625 533.916015625 409.943359375 573.573242188 405.495117188 772.307617188 c 1
 409.2734375 581.374023438 295.046875 530.501953125 194.834960938 502.747070312 c 1025
EndSplineSet
Fore
SplineSet
644.291951195 492.341667419 m 1
 633.886548301 464.204013099 l 1
 605.748893982 474.609415993 l 2
 546.860269006 496.386635292 456.809494312 525.933638736 408.079477804 623.070463527 c 1
 363.347022028 527.403089185 274.703463247 493.738242145 202.8423761 473.835458417 c 2
 173.930764204 465.828043254 l 1
 165.923349042 494.73965515 l 1
 157.915933879 523.651267046 l 1
 186.827545775 531.658682208 l 2
 279.702207355 557.381425582 372.123847487 595.714874169 375.495117188 753.767570942 c 2
 375.495117188 772.307617188 l 1
 375.495117188 832.198242188 l 1
 375.495117188 862.198242188 l 1
 405.495117188 862.198242188 l 1
 435.495117188 862.198242188 l 1
 435.495117188 832.198242188 l 1
 435.495117188 772.64837425 l 1
 439.665023679 591.881466659 542.042441028 562.139502257 626.559699768 530.884724632 c 2
 654.697354088 520.479321739 l 1
 644.291951195 492.341667419 l 1
EndSplineSet
EndChar

StartChar: iy.cvc.1
Encoding: 40 -1 47
Width: 810
VWidth: 230
Flags: W
HStem: 472.747 60<224.835 646.154>
VStem: 164.835 60<532.747 862.198>
AnchorPoint: "Above" 405 230 basechar 0
LayerCount: 2
Back
SplineSet
616.154296875 502.747070312 m 5
 194.834960938 502.747070312 l 1
 194.834960938 832.198242188 l 1025
EndSplineSet
Fore
SplineSet
646.154296875 502.747070312 m 1
 646.154296875 472.747070312 l 1
 616.154296875 472.747070312 l 1
 194.834960938 472.747070312 l 2
 176.675915511 472.747070312 164.834960938 489.871185113 164.834960938 502.747070312 c 2
 164.834960938 832.198242188 l 1
 164.834960938 862.198242188 l 1
 194.834960938 862.198242188 l 1
 224.834960938 862.198242188 l 1
 224.834960938 832.198242188 l 1
 224.834960938 532.747070312 l 1
 616.154296875 532.747070312 l 1
 646.154296875 532.747070312 l 1
 646.154296875 502.747070312 l 1
EndSplineSet
EndChar

StartChar: ry.cvc.1
Encoding: 41 -1 48
Width: 810
VWidth: 230
Flags: W
AnchorPoint: "Above" 405 230 basechar 0
LayerCount: 2
Back
SplineSet
194.834960938 502.747070312 m 1
 616.154296875 832.198242188 l 1025
194.834960938 832.198242188 m 1
 616.154296875 502.747070312 l 1025
EndSplineSet
Fore
SplineSet
171.202271694 850.677852549 m 1
 189.681882055 874.310541793 l 1
 213.314571299 855.830931431 l 1
 405.494628906 705.555499498 l 1
 597.674686514 855.830931431 l 1
 621.307375757 874.310541793 l 1
 639.786986119 850.677852549 l 1
 658.26659648 827.045163305 l 1
 634.633907236 808.565552944 l 1
 454.196954464 667.47265625 l 1
 634.633907236 526.379759556 l 1
 658.26659648 507.900149195 l 1
 639.786986119 484.267459951 l 1
 621.307375757 460.634770707 l 1
 597.674686514 479.114381069 l 1
 405.494628906 629.389813002 l 1
 213.314571299 479.114381069 l 1
 189.681882055 460.634770707 l 1
 171.202271694 484.267459951 l 1
 152.722661332 507.900149195 l 1
 176.355350576 526.379759556 l 1
 356.792303349 667.47265625 l 1
 176.355350576 808.565552944 l 1
 152.722661332 827.045163305 l 1
 171.202271694 850.677852549 l 1
EndSplineSet
EndChar

StartChar: my.cvc.1
Encoding: 48 -1 49
Width: 810
VWidth: 230
Flags: W
HStem: 472.747 60<224.835 586.154> 802.198 60<224.835 586.154>
VStem: 164.835 60<532.747 802.198> 586.154 60<532.747 802.198>
AnchorPoint: "Above" 405 230 basechar 0
LayerCount: 2
Back
SplineSet
194.834960938 832.198242188 m 1
 616.154296875 832.198242188 l 5
 616.154296875 502.747070312 l 5
 194.834960938 502.747070312 l 1
 194.834960938 832.198242188 l 1
EndSplineSet
Fore
SplineSet
194.834960938 862.198242188 m 2
 616.154296875 862.198242188 l 2
 634.313342302 862.198242188 646.154296875 845.074127387 646.154296875 832.198242188 c 2
 646.154296875 502.747070312 l 2
 646.154296875 484.588024886 629.030182074 472.747070312 616.154296875 472.747070312 c 2
 194.834960938 472.747070312 l 2
 176.675915511 472.747070312 164.834960938 489.871185113 164.834960938 502.747070312 c 2
 164.834960938 832.198242188 l 2
 164.834960938 850.357287614 181.959075738 862.198242188 194.834960938 862.198242188 c 2
224.834960938 802.198242188 m 1
 224.834960938 532.747070312 l 1
 586.154296875 532.747070312 l 1
 586.154296875 802.198242188 l 1
 224.834960938 802.198242188 l 1
EndSplineSet
EndChar

StartChar: by.cvc.1
Encoding: 49 -1 50
Width: 810
VWidth: 230
Flags: W
HStem: 473 60<225 646> 802 60<225 646>
VStem: 165 60<533 802>
AnchorPoint: "Above" 405 230 basechar 0
LayerCount: 2
Back
SplineSet
616 503 m 5
 195 503 l 1
 195 832 l 1
 616 832 l 1029
EndSplineSet
Fore
SplineSet
646 503 m 1
 646 473 l 1
 616 473 l 1
 195 473 l 2
 176.840954573 473 165 490.124114801 165 503 c 2
 165 832 l 2
 165 850.159045427 182.124114801 862 195 862 c 2
 616 862 l 1
 646 862 l 1
 646 832 l 1
 646 802 l 1
 616 802 l 1
 225 802 l 1
 225 533 l 1
 616 533 l 1
 646 533 l 1
 646 503 l 1
EndSplineSet
EndChar

StartChar: py.cvc.1
Encoding: 50 -1 51
Width: 810
VWidth: 230
Flags: W
HStem: 473 60<165.014 586.304> 802.198 60<164.835 586.169>
VStem: 586.304 60.015<533.183 802.198>
AnchorPoint: "Above" 405 230 basechar 0
LayerCount: 2
Back
SplineSet
194.834960938 832.198242188 m 1
 616.154296875 832.198242188 l 5
 616.319335938 503.197265625 l 5
 195 503 l 1025
EndSplineSet
Fore
SplineSet
164.834960938 832.198242188 m 1
 164.834960938 862.198242188 l 1
 194.834960938 862.198242188 l 1
 616.154296875 862.198242188 l 2
 633.201839695 862.198242188 646.146767656 847.215064429 646.1542931 832.213291296 c 2
 646.319332163 503.212314733 l 2
 646.328441249 485.053594438 629.211121285 473.20329839 616.333382215 473.197268913 c 2
 195.014046277 473.000003288 l 1
 165.014049565 472.985957011 l 1
 165.000003288 502.985953723 l 1
 164.985957011 532.985950435 l 1
 194.985953723 532.999996712 l 1
 586.304290101 533.18321559 l 1
 586.16934221 802.198242188 l 1
 194.834960938 802.198242188 l 1
 164.834960938 802.198242188 l 1
 164.834960938 832.198242188 l 1
EndSplineSet
EndChar

StartChar: vy.cvc.1
Encoding: 51 -1 52
Width: 810
VWidth: 230
Flags: W
HStem: 472.747 60<224.835 536.015>
VStem: 164.835 60<532.747 862.198>
AnchorPoint: "Above" 405 230 basechar 0
LayerCount: 2
Back
SplineSet
194.834960938 832.198242188 m 29
 194.834960938 502.747070312 l 29
 564.725585938 502.747070312 l 17
 569.625976562 568 556.89453125 701.34765625 640.110351562 832.198242188 c 1033
EndSplineSet
Fore
SplineSet
194.834960938 862.198242188 m 1
 224.834960938 862.198242188 l 1
 224.834960938 832.198242188 l 1
 224.834960938 532.747070312 l 1
 536.015446755 532.747070312 l 1
 537.95101525 604.698060261 537.598011507 726.909422069 614.79588705 848.297244841 c 2
 630.894889703 873.611709354 l 1
 656.209354216 857.5127067 l 1
 681.523818729 841.413704047 l 1
 665.424816075 816.099239534 l 2
 587.730742927 693.931183543 599.931332401 570.941184285 594.641345547 500.500444626 c 0
 593.483147901 485.078043567 580.228685833 472.747070312 564.725585938 472.747070312 c 2
 194.834960938 472.747070312 l 2
 181.959075738 472.747070312 164.834960938 484.588024886 164.834960938 502.747070312 c 2
 164.834960938 832.198242188 l 1
 164.834960938 862.198242188 l 1
 194.834960938 862.198242188 l 1
EndSplineSet
EndChar

StartChar: fy.cvc.1
Encoding: 52 -1 53
Width: 810
VWidth: 230
Flags: W
HStem: 802.198 60<275.93 587.11>
VStem: 587.11 60<472.747 802.198>
AnchorPoint: "Above" 405 230 basechar 0
LayerCount: 2
Back
SplineSet
617.110351562 502.747070312 m 25
 617.110351562 832.198242188 l 25
 247.219726562 832.198242188 l 17
 242.319335938 766.9453125 255.05078125 633.59765625 171.834960938 502.747070312 c 1033
EndSplineSet
Fore
SplineSet
617.110351562 472.747070312 m 1
 587.110351562 472.747070312 l 1
 587.110351562 502.747070312 l 1
 587.110351562 802.198242188 l 1
 275.929865745 802.198242188 l 1
 273.99429725 730.247252239 274.347300993 608.035890431 197.14942545 486.648067659 c 2
 181.050422797 461.333603146 l 1
 155.735958284 477.4326058 l 1
 130.421493771 493.531608453 l 1
 146.520496425 518.846072966 l 2
 224.214569573 641.014128957 212.013980099 764.004128215 217.303966953 834.444867874 c 0
 218.462164599 849.867268933 231.716626667 862.198242188 247.219726562 862.198242188 c 2
 617.110351562 862.198242188 l 2
 629.986236762 862.198242188 647.110351562 850.357287614 647.110351562 832.198242188 c 2
 647.110351562 502.747070312 l 1
 647.110351562 472.747070312 l 1
 617.110351562 472.747070312 l 1
146.520496425 518.846072966 m 1
 147.057129847 519.68988845 146.520496425 519.846072966 146.520496425 518.846072966 c 1
EndSplineSet
EndChar

StartChar: ky.cvc.1
Encoding: 53 -1 54
Width: 810
VWidth: 230
Flags: W
AnchorPoint: "Above" 405 230 basechar 0
LayerCount: 2
Back
SplineSet
194.834960938 832.198242188 m 1
 615.0546875 667.47265625 l 5
 194.834960938 502.747070312 l 1025
EndSplineSet
Fore
SplineSet
166.90426375 843.147039136 m 1
 177.853060698 871.077736323 l 1
 205.783757886 860.128939375 l 1
 626.003484448 695.403353438 l 2
 642.058500406 689.109808076 649.574052606 669.878000976 642.040277391 654.366247961 c 0
 638.649436461 647.384637081 631.248946814 641.598173483 626.003484448 639.541959062 c 2
 205.783757886 474.816373125 l 1
 177.853060698 463.867576177 l 1
 166.90426375 491.798273364 l 1
 155.955466802 519.728970552 l 1
 183.886163989 530.6777675 l 1
 532.853875462 667.47265625 l 1
 183.886163989 804.267545 l 1
 155.955466802 815.216341948 l 1
 166.90426375 843.147039136 l 1
EndSplineSet
EndChar

StartChar: cy.cvc.1
Encoding: 54 -1 55
Width: 810
VWidth: 230
Flags: W
HStem: 637 60<166 346.655 469.838 646>
VStem: 375 60<697.179 862>
AnchorPoint: "Above" 405 230 basechar 0
LayerCount: 2
Back
SplineSet
616 667 m 5
 196 667 l 1029
405 786 m 5
 405 832 l 1029
616 503 m 5
 536 537 409 567 405 786 c 5
 409 576 295 534 195 503 c 1029
EndSplineSet
Fore
SplineSet
643.609927554 491.26578079 m 1
 631.875708343 463.655853236 l 1
 604.26578079 475.390072446 l 2
 551.197386789 497.944139896 457.263714019 524.004273864 407.898134909 626.340053767 c 1
 362.786339716 525.145686415 273.970316869 496.072359873 203.882963133 474.345280215 c 2
 175.228243348 465.462317081 l 1
 166.345280215 494.117036867 l 1
 157.462317081 522.771756652 l 1
 186.117036867 531.654719785 l 2
 251.185383469 551.825907232 312.269427276 572.683466524 346.655081498 637 c 1
 196 637 l 1
 166 637 l 1
 166 667 l 1
 166 697 l 1
 196 697 l 1
 367.718674927 697 l 2
 368.465381993 700.551980008 369.161173844 704.189200488 369.804650223 707.914298251 c 0
 372.74281779 724.92340968 374.56383032 743.971217595 375 765.296044484 c 2
 375 786 l 1
 375 832 l 1
 375 862 l 1
 405 862 l 1
 435 862 l 1
 435 832 l 1
 435 786.277983569 l 2
 435.559887127 756.478143773 438.519791769 730.833798788 443.232270433 708.73589037 c 0
 444.089097384 704.718029526 445.002297583 700.807305635 445.969729165 697 c 2
 616 697 l 1
 646 697 l 1
 646 667 l 1
 646 637 l 1
 616 637 l 1
 469.83845945 637 l 1
 508.308301855 571.315098639 571.649860731 554.445779907 627.73421921 530.609927554 c 1
 627.73421921 531.609927554 628.654550129 530.218786913 627.73421921 530.609927554 c 1
 655.344146764 518.875708343 l 1
 643.609927554 491.26578079 l 1
EndSplineSet
EndChar

StartChar: yhy.cvc.1
Encoding: 55 -1 56
Width: 810
VWidth: 230
Flags: W
VStem: 165 60<564.518 862> 586 60<473 770.482>
AnchorPoint: "Above" 405 230 basechar 0
LayerCount: 2
Back
SplineSet
616 503 m 1
 616 832 l 1
 195 503 l 5
 195 832 l 1029
EndSplineSet
Fore
SplineSet
616 473 m 1
 586 473 l 1
 586 503 l 1
 586 770.481817844 l 1
 213.472589838 479.36182273 l 2
 199.884983674 468.74347967 179.504949996 472.060128055 169.985382042 486.438934562 c 0
 166.675434189 491.438436636 165 499.231220195 165 503 c 2
 165 832 l 1
 165 862 l 1
 195 862 l 1
 225 862 l 1
 225 832 l 1
 225 564.518182156 l 1
 597.527410162 855.63817727 l 2
 601.901021077 859.056034731 607.787329328 861.446426643 613.646287437 861.907524758 c 0
 630.837615817 863.260476763 646 849.244484643 646 832 c 2
 646 503 l 1
 646 473 l 1
 616 473 l 1
EndSplineSet
EndChar

StartChar: uy.cvc.1
Encoding: 56 -1 57
Width: 810
VWidth: 230
Flags: W
HStem: 472.747 60<164.835 586.154>
VStem: 586.154 60<532.747 862.198>
AnchorPoint: "Above" 405 230 basechar 0
LayerCount: 2
Back
SplineSet
616.154296875 832.198242188 m 25
 616.154296875 502.747070312 l 25
 194.834960938 502.747070312 l 1053
EndSplineSet
Fore
SplineSet
616.154296875 862.198242188 m 1
 646.154296875 862.198242188 l 1
 646.154296875 832.198242188 l 1
 646.154296875 502.747070312 l 2
 646.154296875 484.588024886 629.030182074 472.747070312 616.154296875 472.747070312 c 2
 194.834960938 472.747070312 l 1
 164.834960938 472.747070312 l 1
 164.834960938 502.747070312 l 1
 164.834960938 532.747070312 l 1
 194.834960938 532.747070312 l 1
 586.154296875 532.747070312 l 1
 586.154296875 832.198242188 l 1
 586.154296875 862.198242188 l 1
 616.154296875 862.198242188 l 1
EndSplineSet
EndChar

StartChar: ly.cvc.1
Encoding: 57 -1 58
Width: 810
VWidth: 230
Flags: W
HStem: 472.747 60<224.853 646.154> 637.473 60<224.916 586.154> 802.198 60<164.835 586.154>
VStem: 164.835 60.0181<532.747 637.473> 586.154 60<697.473 802.198>
AnchorPoint: "Above" 405 230 basechar 0
LayerCount: 2
Back
SplineSet
194.834960938 832.198242188 m 25
 616.154296875 832.198242188 l 25
 616.154296875 667.47265625 l 25
 194.934570312 667.47265625 l 25
 194.834960938 502.747070312 l 25
 616.154296875 502.747070312 l 1049
EndSplineSet
Fore
SplineSet
164.834960938 832.198242188 m 1
 164.834960938 862.198242188 l 1
 194.834960938 862.198242188 l 1
 616.154296875 862.198242188 l 2
 634.313342302 862.198242188 646.154296875 845.074127387 646.154296875 832.198242188 c 2
 646.154296875 667.47265625 l 2
 646.154296875 649.313610823 629.030182074 637.47265625 616.154296875 637.47265625 c 2
 224.916434831 637.47265625 l 1
 224.853107388 532.747070312 l 1
 616.154296875 532.747070312 l 1
 646.154296875 532.747070312 l 1
 646.154296875 502.747070312 l 1
 646.154296875 472.747070312 l 1
 616.154296875 472.747070312 l 1
 194.834960938 472.747070312 l 2
 181.925513855 472.747070312 164.823989207 484.612018146 164.834966422 502.765211275 c 2
 164.934575797 667.490797213 l 2
 164.943643908 682.486873526 177.885870761 697.47265625 194.934570312 697.47265625 c 2
 586.154296875 697.47265625 l 1
 586.154296875 802.198242188 l 1
 194.834960938 802.198242188 l 1
 164.834960938 802.198242188 l 1
 164.834960938 832.198242188 l 1
EndSplineSet
EndChar

StartChar: dy.ccv.1
Encoding: 97 -1 59
Width: 810
VWidth: 230
Flags: W
HStem: 254.945 60<134.396 375.055> 528.571 60<134.396 375.055> 802.198 60<134.396 375.055>
VStem: 74.3955 60<314.945 528.571 588.571 802.198>
AnchorPoint: "Above" 405 230 basechar 0
LayerCount: 2
Back
SplineSet
345.0546875 558.571289062 m 29
 104.395507812 558.571289062 l 1053
345.0546875 832.198242188 m 29
 104.395507812 832.198242188 l 29
 104.395507812 284.9453125 l 29
 345.0546875 284.9453125 l 1053
EndSplineSet
Fore
SplineSet
375.0546875 832.198242188 m 1
 375.0546875 802.198242188 l 1
 345.0546875 802.198242188 l 1
 134.395507812 802.198242188 l 1
 134.395507812 588.571289062 l 1
 345.0546875 588.571289062 l 1
 375.0546875 588.571289062 l 1
 375.0546875 558.571289062 l 1
 375.0546875 528.571289062 l 1
 345.0546875 528.571289062 l 1
 134.395507812 528.571289062 l 1
 134.395507812 314.9453125 l 1
 345.0546875 314.9453125 l 1
 375.0546875 314.9453125 l 1
 375.0546875 284.9453125 l 1
 375.0546875 254.9453125 l 1
 345.0546875 254.9453125 l 1
 104.395507812 254.9453125 l 2
 91.5196226133 254.9453125 74.3955078125 266.786267073 74.3955078125 284.9453125 c 2
 74.3955078125 528.571289062 l 1
 74.3955078125 558.571289062 l 1
 74.3955078125 588.571289062 l 1
 74.3955078125 832.198242188 l 2
 74.3955078125 845.074127387 86.2364623859 862.198242188 104.395507812 862.198242188 c 2
 345.0546875 862.198242188 l 1
 375.0546875 862.198242188 l 1
 375.0546875 832.198242188 l 1
EndSplineSet
EndChar

StartChar: ty.ccv.1
Encoding: 98 -1 60
Width: 810
VWidth: 230
Flags: W
HStem: 254.945 60<74.3955 315.055> 528.571 60<74.3955 315.055> 802.198 60<74.3955 315.055>
VStem: 315.055 60<314.945 528.571 588.571 802.198>
AnchorPoint: "Above" 405 230 basechar 0
LayerCount: 2
Back
SplineSet
104.395507812 558.571289062 m 29
 345.0546875 558.571289062 l 1053
104.395507812 284.9453125 m 29
 345.0546875 284.9453125 l 29
 345.0546875 832.198242188 l 29
 104.395507812 832.198242188 l 1053
EndSplineSet
Fore
SplineSet
74.3955078125 284.9453125 m 1
 74.3955078125 314.9453125 l 1
 104.395507812 314.9453125 l 1
 315.0546875 314.9453125 l 1
 315.0546875 528.571289062 l 1
 104.395507812 528.571289062 l 1
 74.3955078125 528.571289062 l 1
 74.3955078125 558.571289062 l 1
 74.3955078125 588.571289062 l 1
 104.395507812 588.571289062 l 1
 315.0546875 588.571289062 l 1
 315.0546875 802.198242188 l 1
 104.395507812 802.198242188 l 1
 74.3955078125 802.198242188 l 1
 74.3955078125 832.198242188 l 1
 74.3955078125 862.198242188 l 1
 104.395507812 862.198242188 l 1
 345.0546875 862.198242188 l 2
 357.930572699 862.198242188 375.0546875 850.357287614 375.0546875 832.198242188 c 2
 375.0546875 588.571289062 l 1
 375.0546875 558.571289062 l 1
 375.0546875 528.571289062 l 1
 375.0546875 284.9453125 l 2
 375.0546875 272.069427301 363.213732927 254.9453125 345.0546875 254.9453125 c 2
 104.395507812 254.9453125 l 1
 74.3955078125 254.9453125 l 1
 74.3955078125 284.9453125 l 1
EndSplineSet
EndChar

StartChar: zy.ccv.1
Encoding: 99 -1 61
Width: 810
VWidth: 230
Flags: W
HStem: 254.945 60<134.396 214.64> 541.758 60<134.396 241.715>
VStem: 74.3955 60<314.945 541.758 601.758 862.198>
AnchorPoint: "Above" 405 230 basechar 0
LayerCount: 2
Back
SplineSet
117.58203125 571.7578125 m 29
 256.043945312 571.7578125 l 1053
104.395507812 832.198242188 m 29
 104.395507812 284.9453125 l 29
 240.659179688 284.9453125 l 21
 253.796875 470.443359375 283.966796875 653.26171875 352.747070312 830 c 1037
EndSplineSet
Fore
SplineSet
104.395507812 862.198242188 m 1
 134.395507812 862.198242188 l 1
 134.395507812 832.198242188 l 1
 134.395507812 601.7578125 l 1
 253.627308943 601.7578125 l 1
 271.020046257 682.264302226 294.113599332 762.054980495 324.789534325 840.880081872 c 2
 335.669616197 868.837617859 l 1
 363.627152184 857.957535987 l 1
 391.584688171 847.077454116 l 1
 380.7046063 819.119918128 l 2
 313.396708337 646.165063401 283.593802556 466.515042828 270.584221191 282.825904322 c 0
 269.630110275 269.354309258 257.223834767 254.9453125 240.659179688 254.9453125 c 2
 104.395507812 254.9453125 l 2
 91.5196226133 254.9453125 74.3955078125 266.786267073 74.3955078125 284.9453125 c 2
 74.3955078125 832.198242188 l 1
 74.3955078125 862.198242188 l 1
 104.395507812 862.198242188 l 1
134.395507812 541.7578125 m 1
 134.395507812 314.9453125 l 1
 212.840010131 314.9453125 l 1
 218.953134315 390.980321495 228.075207059 466.651240843 241.714838866 541.7578125 c 1
 134.395507812 541.7578125 l 1
EndSplineSet
EndChar

StartChar: sy.ccv.1
Encoding: 100 -1 62
Width: 810
VWidth: 230
Flags: W
HStem: 515 60<208.016 315> 802 60<235.048 315>
VStem: 315 60<255 515 575 802>
AnchorPoint: "Above" 405 230 basechar 0
LayerCount: 2
Back
SplineSet
332 545 m 5
 193 545 l 1029
345 285 m 5
 345 832 l 5
 209 832 l 5
 196 647 166 464 97 287 c 1029
EndSplineSet
Fore
SplineSet
345 255 m 1
 315 255 l 1
 315 285 l 1
 315 515 l 1
 196.107436404 515 l 1
 178.741616133 434.615760746 155.655443747 354.866711182 124.951240052 276.103753878 c 2
 114.05499393 248.152513826 l 1
 86.103753878 259.048759948 l 1
 58.1525138259 269.94500607 l 1
 69.0487599479 297.896246122 l 2
 136.564178802 471.087972747 166.200635775 650.907957466 179.073795479 834.10292248 c 0
 180.022419765 847.602575786 192.439276426 862 209 862 c 2
 345 862 l 2
 357.875885199 862 375 850.159045427 375 832 c 2
 375 285 l 1
 375 255 l 1
 345 255 l 1
315 575 m 1
 315 802 l 1
 236.83433616 802 l 1
 230.770961952 726.046198564 221.678840064 650.284489999 208.016012279 575 c 1
 315 575 l 1
EndSplineSet
EndChar

StartChar: gy.ccv.1
Encoding: 101 -1 63
Width: 810
VWidth: 230
Flags: W
AnchorPoint: "Above" 405 230 basechar 0
LayerCount: 2
Back
SplineSet
343.956054688 826.703125 m 5
 104 558 l 5
 345 285 l 1029
EndSplineSet
Fore
SplineSet
363.938499312 849.079494384 m 1
 386.314868696 829.09704976 l 1
 366.332424072 806.720680376 l 1
 144.118516123 557.88523606 l 1
 367.490326704 304.854097933 l 1
 387.344424637 282.363771229 l 1
 364.854097933 262.509673296 l 1
 342.363771229 242.655575363 l 1
 322.509673296 265.145902067 l 1
 81.5096732957 538.145902067 l 2
 72.6672781692 548.162391152 71.0987651549 566.19668559 81.6236306155 577.982444624 c 2
 321.579685303 846.685569624 l 1
 341.562129927 869.061939009 l 1
 363.938499312 849.079494384 l 1
EndSplineSet
EndChar

StartChar: jy.ccv.1
Encoding: 102 -1 64
Width: 810
VWidth: 230
Flags: W
HStem: 528.571 60<74.3955 188.942 258.628 375.055>
VStem: 194.176 60<254.945 528.571>
AnchorPoint: "Above" 405 230 basechar 0
LayerCount: 2
Back
SplineSet
104.395507812 558.571289062 m 29
 345.0546875 558.571289062 l 1053
345.0546875 832.198242188 m 21
 276.921875 765.53125 236.627929688 673.956054688 224.17578125 557.47265625 c 1037
104.395507812 832.198242188 m 21
 180.297851562 766.618164062 208.405273438 669.794921875 224.17578125 557.47265625 c 13
 224.17578125 284.9453125 l 1053
EndSplineSet
Fore
SplineSet
81.6949685363 851.811643641 m 1
 101.30836999 874.512182917 l 1
 124.008909266 854.898781464 l 2
 173.978058022 811.72513863 204.605990627 757.161988379 224.611064226 696.272919551 c 1
 246.831223859 757.653793228 279.881196188 810.399407767 324.073398007 853.640851432 c 2
 345.516007252 874.622140925 l 1
 366.497296745 853.17953168 l 1
 387.478586237 831.736922435 l 1
 366.035976993 810.755632943 l 2
 310.306641979 756.225267827 274.152837151 683.136876141 258.628344675 588.571289062 c 1
 345.0546875 588.571289062 l 1
 375.0546875 588.571289062 l 1
 375.0546875 558.571289062 l 1
 375.0546875 528.571289062 l 1
 345.0546875 528.571289062 l 1
 254.17578125 528.571289062 l 1
 254.17578125 284.9453125 l 1
 254.17578125 254.9453125 l 1
 224.17578125 254.9453125 l 1
 194.17578125 254.9453125 l 1
 194.17578125 284.9453125 l 1
 194.17578125 528.571289062 l 1
 104.395507812 528.571289062 l 1
 74.3955078125 528.571289062 l 1
 74.3955078125 558.571289062 l 1
 74.3955078125 588.571289062 l 1
 104.395507812 588.571289062 l 1
 188.941762207 588.571289062 l 1
 172.672141843 681.627457071 144.489855467 757.909851236 84.7821063592 809.497702911 c 2
 62.081567083 829.111104365 l 1
 81.6949685363 851.811643641 l 1
EndSplineSet
EndChar

StartChar: xy.ccv.1
Encoding: 103 -1 65
Width: 810
VWidth: 230
Flags: W
VStem: 195.274 60<586.635 862.198>
AnchorPoint: "Above" 405 230 basechar 0
LayerCount: 2
Back
SplineSet
104.395507812 284.9453125 m 21
 172.528320312 351.612304688 212.822265625 443.1875 225.274414062 559.670898438 c 1037
345.0546875 284.9453125 m 21
 269.15234375 350.525390625 241.044921875 447.348632812 225.274414062 559.670898438 c 13
 225.274414062 832.198242188 l 1053
EndSplineSet
Fore
SplineSet
367.755226776 265.331911047 m 1
 348.141825323 242.63137177 l 1
 325.441286047 262.244773224 l 2
 275.47213729 305.418416057 244.844204686 359.981566308 224.839131086 420.870635136 c 1
 202.618971453 359.48976146 169.568999125 306.74414692 125.376797305 263.502703255 c 2
 103.93418806 242.521413763 l 1
 82.9528985676 263.964023007 l 1
 61.971609075 285.406632252 l 1
 83.4142183199 306.387921745 l 1
 82.6994646784 305.688545428 82.4142183199 306.387921745 83.4142183199 306.387921745 c 1
 145.409372876 367.049302551 183.179665769 450.676376861 195.274414062 561.287801029 c 1
 195.274414062 832.198242188 l 1
 195.274414062 862.198242188 l 1
 225.274414062 862.198242188 l 1
 255.274414062 862.198242188 l 1
 255.274414062 832.198242188 l 1
 255.274414062 586.634808817 l 1
 258.293303139 586.312087679 l 1
 255.500975625 560.191310206 l 1
 270.906238991 452.767127935 298.328217107 364.96389709 364.668088953 307.645851776 c 2
 387.36862823 288.032450323 l 1
 367.755226776 265.331911047 l 1
255.104453221 556.48204852 m 1
 254.998158224 555.487713881 256.104453221 556.48204852 255.104453221 556.48204852 c 1
EndSplineSet
EndChar

StartChar: iy.ccv.1
Encoding: 104 -1 66
Width: 810
VWidth: 230
Flags: W
HStem: 254.945 60<134.396 375.055>
VStem: 74.3955 60<314.945 862.198>
AnchorPoint: "Above" 405 230 basechar 0
LayerCount: 2
Back
SplineSet
104.395507812 832.198242188 m 29
 104.395507812 284.9453125 l 29
 345.0546875 284.9453125 l 1053
EndSplineSet
Fore
SplineSet
104.395507812 862.198242188 m 1
 134.395507812 862.198242188 l 1
 134.395507812 832.198242188 l 1
 134.395507812 314.9453125 l 1
 345.0546875 314.9453125 l 1
 375.0546875 314.9453125 l 1
 375.0546875 284.9453125 l 1
 375.0546875 254.9453125 l 1
 345.0546875 254.9453125 l 1
 104.395507812 254.9453125 l 2
 91.5196226133 254.9453125 74.3955078125 266.786267073 74.3955078125 284.9453125 c 2
 74.3955078125 832.198242188 l 1
 74.3955078125 862.198242188 l 1
 104.395507812 862.198242188 l 1
EndSplineSet
EndChar

StartChar: ry.ccv.1
Encoding: 105 -1 67
Width: 810
VWidth: 230
Flags: W
VStem: 64.883 318.586
AnchorPoint: "Above" 405 230 basechar 0
LayerCount: 2
Back
SplineSet
104.395507812 284.9453125 m 29
 343.956054688 832.198242188 l 1053
104.395507812 832.198242188 m 29
 343.956054688 284.9453125 l 1053
EndSplineSet
Fore
SplineSet
92.3651519882 859.680428031 m 1
 119.847337832 871.710783855 l 1
 131.877693656 844.228598012 l 1
 224.17578125 633.382532167 l 1
 316.473868844 844.228598012 l 1
 328.504224668 871.710783855 l 1
 355.986410512 859.680428031 l 1
 383.468596355 847.650072207 l 1
 371.438240531 820.167886363 l 1
 256.924268038 558.571777344 l 1
 371.438240531 296.975668324 l 1
 383.468596355 269.493482481 l 1
 355.986410512 257.463126656 l 1
 328.504224668 245.432770832 l 1
 316.473868844 272.914956676 l 1
 224.17578125 483.761022521 l 1
 131.877693656 272.914956676 l 1
 119.847337832 245.432770832 l 1
 92.3651519882 257.463126656 l 1
 64.8829661446 269.493482481 l 1
 76.9133219689 296.975668324 l 1
 191.427294462 558.571777344 l 1
 76.9133219689 820.167886363 l 1
 64.8829661446 847.650072207 l 1
 92.3651519882 859.680428031 l 1
EndSplineSet
EndChar

StartChar: my.ccv.1
Encoding: 112 -1 68
Width: 810
VWidth: 230
Flags: W
HStem: 254.945 60<134.396 315.055> 802.198 60<134.396 315.055>
VStem: 74.3955 60<314.945 802.198> 315.055 60<314.945 802.198>
AnchorPoint: "Above" 405 230 basechar 0
LayerCount: 2
Back
SplineSet
104.395507812 832.198242188 m 5
 345.0546875 832.198242188 l 5
 345.0546875 284.9453125 l 5
 104.395507812 284.9453125 l 5
 104.395507812 832.198242188 l 5
EndSplineSet
Fore
SplineSet
104.395507812 862.198242188 m 2
 345.0546875 862.198242188 l 2
 363.213732927 862.198242188 375.0546875 845.074127387 375.0546875 832.198242188 c 2
 375.0546875 284.9453125 l 2
 375.0546875 266.786267073 357.930572699 254.9453125 345.0546875 254.9453125 c 2
 104.395507812 254.9453125 l 2
 86.2364623859 254.9453125 74.3955078125 272.069427301 74.3955078125 284.9453125 c 2
 74.3955078125 832.198242188 l 2
 74.3955078125 850.357287614 91.5196226133 862.198242188 104.395507812 862.198242188 c 2
134.395507812 802.198242188 m 1
 134.395507812 314.9453125 l 1
 315.0546875 314.9453125 l 1
 315.0546875 802.198242188 l 1
 134.395507812 802.198242188 l 1
EndSplineSet
EndChar

StartChar: by.ccv.1
Encoding: 113 -1 69
Width: 810
VWidth: 230
Flags: W
HStem: 254.945 60<134.396 375.055> 802.198 60<134.396 375.055>
VStem: 74.3955 60<314.945 802.198>
AnchorPoint: "Above" 405 230 basechar 0
LayerCount: 2
Back
SplineSet
345.0546875 832.198242188 m 29
 104.395507812 832.198242188 l 29
 104.395507812 284.9453125 l 29
 345.0546875 284.9453125 l 1053
EndSplineSet
Fore
SplineSet
375.0546875 832.198242188 m 1
 375.0546875 802.198242188 l 1
 345.0546875 802.198242188 l 1
 134.395507812 802.198242188 l 1
 134.395507812 314.9453125 l 1
 345.0546875 314.9453125 l 1
 375.0546875 314.9453125 l 1
 375.0546875 284.9453125 l 1
 375.0546875 254.9453125 l 1
 345.0546875 254.9453125 l 1
 104.395507812 254.9453125 l 2
 91.5196226133 254.9453125 74.3955078125 266.786267073 74.3955078125 284.9453125 c 2
 74.3955078125 832.198242188 l 2
 74.3955078125 845.074127387 86.2364623859 862.198242188 104.395507812 862.198242188 c 2
 345.0546875 862.198242188 l 1
 375.0546875 862.198242188 l 1
 375.0546875 832.198242188 l 1
EndSplineSet
EndChar

StartChar: py.ccv.1
Encoding: 114 -1 70
Width: 810
VWidth: 230
Flags: W
HStem: 254.945 60<74.3955 315.055> 802.198 60<74.3955 315.055>
VStem: 315.055 60<314.945 802.198>
AnchorPoint: "Above" 405 230 basechar 0
LayerCount: 2
Back
SplineSet
104.395507812 832.198242188 m 29
 345.0546875 832.198242188 l 29
 345.0546875 284.9453125 l 29
 104.395507812 284.9453125 l 1053
EndSplineSet
Fore
SplineSet
74.3955078125 832.198242188 m 1
 74.3955078125 862.198242188 l 1
 104.395507812 862.198242188 l 1
 345.0546875 862.198242188 l 2
 363.213732927 862.198242188 375.0546875 845.074127387 375.0546875 832.198242188 c 2
 375.0546875 284.9453125 l 2
 375.0546875 266.786267073 357.930572699 254.9453125 345.0546875 254.9453125 c 2
 104.395507812 254.9453125 l 1
 74.3955078125 254.9453125 l 1
 74.3955078125 284.9453125 l 1
 74.3955078125 314.9453125 l 1
 104.395507812 314.9453125 l 1
 315.0546875 314.9453125 l 1
 315.0546875 802.198242188 l 1
 104.395507812 802.198242188 l 1
 74.3955078125 802.198242188 l 1
 74.3955078125 832.198242188 l 1
EndSplineSet
EndChar

StartChar: vy.ccv.1
Encoding: 115 -1 71
Width: 810
VWidth: 230
Flags: W
HStem: 254.945 60<134.396 214.232>
VStem: 74.3955 60<314.945 862.198>
AnchorPoint: "Above" 405 230 basechar 0
LayerCount: 2
Back
SplineSet
104.395507812 832.198242188 m 29
 104.395507812 284.9453125 l 29
 240.659179688 284.9453125 l 21
 253.796875 470.443359375 283.966796875 653.26171875 352.747070312 830 c 1037
EndSplineSet
Fore
SplineSet
104.395507812 862.198242188 m 1
 134.395507812 862.198242188 l 1
 134.395507812 832.198242188 l 1
 134.395507812 314.9453125 l 1
 212.840010131 314.9453125 l 1
 227.164635981 493.114939445 258.010968267 669.285402181 324.789534325 840.880081872 c 2
 335.669616197 868.837617859 l 1
 363.627152184 857.957535987 l 1
 391.584688171 847.077454116 l 1
 380.7046063 819.119918128 l 2
 313.396708337 646.165063401 283.593802556 466.515042828 270.584221191 282.825904322 c 0
 269.630110275 269.354309258 257.223834767 254.9453125 240.659179688 254.9453125 c 2
 104.395507812 254.9453125 l 2
 91.5196226133 254.9453125 74.3955078125 266.786267073 74.3955078125 284.9453125 c 2
 74.3955078125 832.198242188 l 1
 74.3955078125 862.198242188 l 1
 104.395507812 862.198242188 l 1
EndSplineSet
EndChar

StartChar: fy.ccv.1
Encoding: 116 -1 72
Width: 810
VWidth: 230
Flags: W
HStem: 802 60<235.456 315>
VStem: 315 60<255 802>
LayerCount: 2
Back
SplineSet
345 285 m 5
 345 832 l 5
 209 832 l 5
 196 647 166 464 97 287 c 1029
EndSplineSet
Fore
SplineSet
345 255 m 1
 315 255 l 1
 315 285 l 1
 315 802 l 1
 236.83433616 802 l 1
 222.659534223 624.437135697 191.932051154 447.9240954 124.951240052 276.103753878 c 2
 114.05499393 248.152513826 l 1
 86.103753878 259.048759948 l 1
 58.1525138259 269.94500607 l 1
 69.0487599479 297.896246122 l 2
 136.564178802 471.087972747 166.200635775 650.907957466 179.073795479 834.10292248 c 0
 180.022419765 847.602575786 192.439276426 862 209 862 c 2
 345 862 l 2
 357.875885199 862 375 850.159045427 375 832 c 2
 375 285 l 1
 375 255 l 1
 345 255 l 1
EndSplineSet
EndChar

StartChar: ky.ccv.1
Encoding: 117 -1 73
Width: 810
VWidth: 230
Flags: W
AnchorPoint: "Above" 405 230 basechar 0
LayerCount: 2
Back
SplineSet
104.395507812 832.198242188 m 29
 343.956054688 556.374023438 l 29
 104.395507812 284.9453125 l 1053
EndSplineSet
Fore
SplineSet
84.7235511533 854.848057224 m 1
 107.37336619 874.520013883 l 1
 127.045322849 851.870198847 l 1
 366.605869724 576.045980097 l 2
 377.010624048 564.066197658 374.863458003 546.056705331 366.448533326 536.522363439 c 2
 126.887986451 265.093652502 l 1
 107.036326453 242.601173863 l 1
 84.5438478143 262.452833861 l 1
 62.0513691755 282.304493859 l 1
 81.9030291737 304.796972498 l 1
 82.5647511737 305.546721786 80.9030291737 304.796972498 81.9030291737 304.796972498 c 1
 304.082771134 556.532751796 l 1
 81.7456927758 812.526285528 l 1
 62.0737361166 835.176100565 l 1
 84.7235511533 854.848057224 l 1
EndSplineSet
EndChar

StartChar: cy.ccv.1
Encoding: 118 -1 74
Width: 810
VWidth: 230
Flags: W
HStem: 528.571 60<73.2969 189.723 259.41 373.956>
VStem: 194.176 60<588.571 862.198>
AnchorPoint: "Above" 405 230 basechar 0
LayerCount: 2
Back
SplineSet
343.956054688 558.571289062 m 29
 103.296875 558.571289062 l 1053
103.296875 284.9453125 m 21
 171.430664062 351.612304688 211.72265625 443.186523438 224.17578125 559.669921875 c 1037
343.956054688 284.9453125 m 21
 268.053710938 350.5234375 239.946289062 447.348632812 224.17578125 559.669921875 c 13
 224.17578125 832.198242188 l 1053
EndSplineSet
Fore
SplineSet
366.656882938 265.332245511 m 1
 347.043815949 242.63141726 l 1
 324.342987698 262.244484249 l 2
 274.373444297 305.417182238 243.745438283 359.980728076 223.74037747 420.870076586 c 1
 201.520491239 359.489505433 168.470962314 306.744110309 124.278010859 263.502552928 c 2
 102.835251286 242.521417069 l 1
 81.8541154276 263.964176641 l 1
 60.8729795689 285.406936214 l 1
 82.3157391413 306.388072072 l 2
 138.045674524 360.918243047 174.198082484 434.005608128 189.72299618 528.571289062 c 1
 103.296875 528.571289062 l 1
 73.296875 528.571289062 l 1
 73.296875 558.571289062 l 1
 73.296875 588.571289062 l 1
 103.296875 588.571289062 l 1
 194.17578125 588.571289062 l 1
 194.17578125 832.198242188 l 1
 194.17578125 862.198242188 l 1
 224.17578125 862.198242188 l 1
 254.17578125 862.198242188 l 1
 254.17578125 832.198242188 l 1
 254.17578125 588.571289062 l 1
 343.956054688 588.571289062 l 1
 373.956054688 588.571289062 l 1
 373.956054688 558.571289062 l 1
 373.956054688 528.571289062 l 1
 343.956054688 528.571289062 l 1
 259.409844759 528.571289062 l 1
 275.679511104 435.515534419 303.861934012 359.231970946 363.569121677 307.646140751 c 2
 386.269949928 288.033073761 l 1
 366.656882938 265.332245511 l 1
EndSplineSet
EndChar

StartChar: yhy.ccv.1
Encoding: 119 -1 75
Width: 810
VWidth: 230
Flags: W
VStem: 74 60<256.284 272.904 427.498 862> 315 60<255 689.502 844.096 860.574>
AnchorPoint: "Above" 405 230 basechar 0
LayerCount: 2
Back
SplineSet
104 832 m 29
 104 285 l 29
 345 832 l 29
 345 285 l 1053
EndSplineSet
Fore
SplineSet
104 862 m 1
 134 862 l 1
 134 832 l 1
 134 427.498431602 l 1
 317.546472773 844.095612544 l 2
 324.499226266 859.876343499 344.025657502 866.589346731 359.212251452 858.419915001 c 0
 369.116913989 853.091829937 375 841.976056641 375 832 c 2
 375 285 l 1
 375 255 l 1
 345 255 l 1
 315 255 l 1
 315 285 l 1
 315 689.501568398 l 1
 131.453527227 272.904387456 l 2
 127.244317308 263.350703534 117.412837184 255.962824786 106.353712563 255.092475242 c 0
 89.1623841831 253.739523237 74 267.755515357 74 285 c 2
 74 832 l 1
 74 862 l 1
 104 862 l 1
EndSplineSet
EndChar

StartChar: uy.ccv.1
Encoding: 120 -1 76
Width: 810
VWidth: 230
Flags: W
HStem: 254.945 60<74.3955 315.055>
VStem: 315.055 60<314.945 862.198>
AnchorPoint: "Above" 405 230 basechar 0
LayerCount: 2
Back
SplineSet
345.0546875 832.198242188 m 29
 345.0546875 284.9453125 l 29
 104.395507812 284.9453125 l 1053
EndSplineSet
Fore
SplineSet
345.0546875 862.198242188 m 1
 375.0546875 862.198242188 l 1
 375.0546875 832.198242188 l 1
 375.0546875 284.9453125 l 2
 375.0546875 266.786267073 357.930572699 254.9453125 345.0546875 254.9453125 c 2
 104.395507812 254.9453125 l 1
 74.3955078125 254.9453125 l 1
 74.3955078125 284.9453125 l 1
 74.3955078125 314.9453125 l 1
 104.395507812 314.9453125 l 1
 315.0546875 314.9453125 l 1
 315.0546875 832.198242188 l 1
 315.0546875 862.198242188 l 1
 345.0546875 862.198242188 l 1
EndSplineSet
EndChar

StartChar: ly.ccv.1
Encoding: 121 -1 77
Width: 810
VWidth: 230
Flags: W
HStem: 254.945 60<134.396 373.956> 528.571 60<134.396 313.956> 802.198 60<74.3955 313.956>
VStem: 74.3955 60<314.945 528.571> 313.956 60<588.571 802.198>
AnchorPoint: "Above" 405 230 basechar 0
LayerCount: 2
Back
SplineSet
104.395507812 832.198242188 m 29
 343.956054688 832.198242188 l 29
 343.956054688 558.571289062 l 29
 104.395507812 558.571289062 l 29
 104.395507812 284.9453125 l 29
 343.956054688 284.9453125 l 1053
EndSplineSet
Fore
SplineSet
74.3955078125 832.198242188 m 1
 74.3955078125 862.198242188 l 1
 104.395507812 862.198242188 l 1
 343.956054688 862.198242188 l 2
 362.115100114 862.198242188 373.956054688 845.074127387 373.956054688 832.198242188 c 2
 373.956054688 558.571289062 l 2
 373.956054688 540.412243636 356.831939887 528.571289062 343.956054688 528.571289062 c 2
 134.395507812 528.571289062 l 1
 134.395507812 314.9453125 l 1
 343.956054688 314.9453125 l 1
 373.956054688 314.9453125 l 1
 373.956054688 284.9453125 l 1
 373.956054688 254.9453125 l 1
 343.956054688 254.9453125 l 1
 104.395507812 254.9453125 l 2
 91.5196226133 254.9453125 74.3955078125 266.786267073 74.3955078125 284.9453125 c 2
 74.3955078125 558.571289062 l 2
 74.3955078125 571.447174262 86.2364623859 588.571289062 104.395507812 588.571289062 c 2
 313.956054688 588.571289062 l 1
 313.956054688 802.198242188 l 1
 104.395507812 802.198242188 l 1
 74.3955078125 802.198242188 l 1
 74.3955078125 832.198242188 l 1
EndSplineSet
EndChar

StartChar: denpabu.cvc.1
Encoding: 63 -1 78
Width: 810
VWidth: 230
Flags: W
HStem: 445.055 60<298.011 512.977> 807.692 60<298.011 512.977>
VStem: 135.934 60<590.81 721.938> 615.055 60<590.81 721.938>
AnchorPoint: "Above" 405 230 basechar 0
LayerCount: 2
Back
SplineSet
165.93359375 656.374023438 m 0
 165.93359375 756.374023438 273.625976562 837.692382812 405.494140625 837.692382812 c 0
 537.362304688 837.692382812 645.0546875 756.374023438 645.0546875 656.374023438 c 0
 645.0546875 556.374023438 537.362304688 475.0546875 405.494140625 475.0546875 c 0
 273.625976562 475.0546875 165.93359375 556.374023438 165.93359375 656.374023438 c 0
EndSplineSet
Fore
SplineSet
135.93359375 656.374023438 m 0
 135.93359375 780.005156117 264.203307167 867.692382812 405.494140625 867.692382812 c 0
 546.786107898 867.692382812 675.0546875 780.005928697 675.0546875 656.374023438 c 0
 675.0546875 532.743028844 546.785181978 445.0546875 405.494140625 445.0546875 c 0
 264.20196548 445.0546875 135.93359375 532.742256318 135.93359375 656.374023438 c 0
195.93359375 656.374023438 m 0
 195.93359375 580.005790557 283.049987645 505.0546875 405.494140625 505.0546875 c 0
 527.939427397 505.0546875 615.0546875 580.005018031 615.0546875 656.374023438 c 0
 615.0546875 732.742118178 527.938501477 807.692382812 405.494140625 807.692382812 c 0
 283.048645958 807.692382812 195.93359375 732.742890758 195.93359375 656.374023438 c 0
EndSplineSet
EndChar

StartChar: ybu.cv
Encoding: 47 -1 79
Width: 0
VWidth: 230
Flags: W
HStem: 106 60<102 375 435 709>
VStem: 375 60<-46 106>
AnchorPoint: "Above" 405 230 mark 0
LayerCount: 2
Back
SplineSet
405 136 m 5
 405 -16 l 1029
679 136 m 5
 132 136 l 1029
EndSplineSet
Fore
SplineSet
709 136 m 1
 709 106 l 1
 679 106 l 1
 435 106 l 1
 435 -16 l 1
 435 -46 l 1
 405 -46 l 1
 375 -46 l 1
 375 -16 l 1
 375 106 l 1
 132 106 l 1
 102 106 l 1
 102 136 l 1
 102 166 l 1
 132 166 l 1
 375 166 l 1
 405 166 l 1
 435 166 l 1
 679 166 l 1
 709 166 l 1
 709 136 l 1
EndSplineSet
Substitution2: "Single Substitution lookup 73 subtable" ybu.cvc
Substitution2: "Single Substitution lookup 69 subtable" ybu.ccv
EndChar

StartChar: eibu.cv
Encoding: 58 -1 80
Width: 0
VWidth: 230
Flags: W
HStem: 106.561 60.0326<162 375.117 435.117 708.967>
VStem: 102 60<-142.857 106.561> 375.117 60.0002<106.116 106.265 166.33 293.95>
AnchorPoint: "Above" 405 230 mark 0
LayerCount: 2
Back
SplineSet
405.494140625 264.06640625 m 5
 405 136 l 1029
679 136 m 5
 132 136.59375 l 5
 132 -112.857421875 l 1029
EndSplineSet
Fore
SplineSet
708.999982326 135.967436034 m 1
 708.96741836 105.967453707 l 1
 678.967436034 106.000017674 l 1
 679.967435445 105.998932208 678.967436034 107.000017674 678.967436034 106.000017674 c 1
 434.885491503 106.264960369 l 2
 434.885491503 106.138130253 434.884023391 106.011300137 434.884023391 105.88447002 c 2
 404.884246706 106.000223315 l 1
 374.88447002 106.115976609 l 2
 374.88447002 106.187347257 374.885296165 106.258717904 374.885296165 106.330088552 c 2
 162 106.561168341 l 1
 162 -112.857421875 l 1
 162 -142.857421875 l 1
 132 -142.857421875 l 1
 102 -142.857421875 l 1
 102 -112.857421875 l 1
 102 136.59375 l 2
 102 149.529880952 113.884041693 166.613431934 132.032563966 166.593732326 c 2
 375.116803644 166.329872606 l 1
 375.49436394 264.182159544 l 1
 375.610117234 294.18193623 l 1
 405.609893919 294.066182935 l 1
 435.609670605 293.950429641 l 1
 435.49391731 263.950652956 l 1
 435.116998981 166.264744423 l 1
 679.032563966 165.999982326 l 1
 709.032546293 165.96741836 l 1
 708.999982326 135.967436034 l 1
434.999776685 135.884246706 m 1
 434.999776685 134.884246706 435.003635129 136.884239262 434.999776685 135.884246706 c 1
EndSplineSet
Substitution2: "Single Substitution lookup 73 subtable" eibu.cvc
Substitution2: "Single Substitution lookup 69 subtable" eibu.ccv
EndChar

StartChar: oibu.cv
Encoding: 59 -1 81
Width: 0
VWidth: 230
Flags: W
HStem: 106 60<102 375 435 649>
VStem: 375 60<166 294> 649 60<-143 106>
AnchorPoint: "Above" 405 230 mark 0
LayerCount: 2
Back
SplineSet
132 136 m 1053,1,-1
405 264 m 5,3,-1
 405 136 l 1053
132 136 m 5,5,-1
 679 136 l 5,6,-1
 679 -113 l 1053
EndSplineSet
Fore
SplineSet
405 294 m 1
 435 294 l 1
 435 264 l 1
 435 166 l 1
 679 166 l 2
 697.159045427 166 709 148.875885199 709 136 c 2
 709 -113 l 1
 709 -143 l 1
 679 -143 l 1
 649 -143 l 1
 649 -113 l 1
 649 106 l 1
 435 106 l 1
 405 106 l 1
 375 106 l 1
 162 106 l 1
 132 106 l 1
 102 106 l 1
 102 136 l 1
 102 166 l 1
 132 166 l 1
 162 166 l 1
 375 166 l 1
 375 264 l 1
 375 294 l 1
 405 294 l 1
EndSplineSet
Substitution2: "Single Substitution lookup 73 subtable" oibu.cvc
Substitution2: "Single Substitution lookup 69 subtable" oibu.ccv
EndChar

StartChar: aibu.cv
Encoding: 60 -1 82
Width: 0
VWidth: 230
Flags: W
HStem: 106.594 60<102.033 375 435 708.967>
VStem: 375 60<106 106.265 166.33 293>
AnchorPoint: "Above" 405 230 mark 0
LayerCount: 2
Back
SplineSet
405 263 m 5
 405 136 l 1053
132 136.59375 m 13
 679 136 l 1053
EndSplineSet
Fore
SplineSet
102.000017674 136.626313966 m 1
 102.03258164 166.626296293 l 1
 132.032563966 166.593732326 l 1
 131.032564555 166.594817792 133.032563966 166.593732326 132.032563966 166.593732326 c 1
 375 166.329999392 l 1
 375 263 l 1
 375 293 l 1
 405 293 l 1
 435 293 l 1
 435 263 l 1
 435 166.264871421 l 1
 679.032563966 165.999982326 l 1
 709.032546293 165.96741836 l 1
 708.999982326 135.967436034 l 1
 708.96741836 105.967453707 l 1
 678.967436034 106.000017674 l 1
 435 106.264836074 l 1
 435 106 l 1
 405 106 l 1
 375 106 l 1
 375 106.329964045 l 1
 131.967436034 106.593767674 l 1
 131.967436034 105.593767674 130.967436623 106.594853139 131.967436034 106.593767674 c 1
 101.967453707 106.62633164 l 1
 102.000017674 136.626313966 l 1
EndSplineSet
Substitution2: "Single Substitution lookup 73 subtable" aibu.cvc
Substitution2: "Single Substitution lookup 69 subtable" aibu.ccv
EndChar

StartChar: aubu.cv
Encoding: 61 -1 83
Width: 0
VWidth: 230
Flags: W
HStem: 106.033 59.9674<162 649>
VStem: 102 60<-143 106.033> 649 60<-142.857 106.561>
AnchorPoint: "Above" 405 230 mark 0
LayerCount: 2
Back
SplineSet
679 -112.857421875 m 25
 679 136.59375 l 1
 132 136 l 9
 132 -113 l 1025
EndSplineSet
Fore
SplineSet
679 -142.857421875 m 1
 649 -142.857421875 l 1
 649 -112.857421875 l 1
 649 106.561168341 l 1
 162 106.032546312 l 1
 162 -113 l 1
 162 -143 l 1
 132 -143 l 1
 102 -143 l 1
 102 -113 l 1
 102 136 l 2
 102 150.969518463 114.913362858 165.981470707 131.967436034 165.999982326 c 2
 678.967436034 166.593732326 l 2
 691.903559365 166.607774051 709 154.742282965 709 136.59375 c 2
 709 -112.857421875 l 1
 709 -142.857421875 l 1
 679 -142.857421875 l 1
EndSplineSet
Substitution2: "Single Substitution lookup 73 subtable" aubu.cvc
Substitution2: "Single Substitution lookup 69 subtable" aubu.ccv
EndChar

StartChar: ubu.cv
Encoding: 45 -1 84
Width: 0
VWidth: 230
Flags: W
HStem: 106.594 60<102 375 435 649>
VStem: 375 60<-46 106.594> 649 60<-142.857 106.594>
AnchorPoint: "Above" 405 230 mark 0
LayerCount: 2
Back
SplineSet
405 136 m 29
 405 -16 l 1029
132 136.59375 m 5
 679 136.59375 l 5
 679 -112.857421875 l 1053
EndSplineSet
Fore
SplineSet
102 136.59375 m 1
 102 166.59375 l 1
 132 166.59375 l 1
 679 166.59375 l 2
 697.159045427 166.59375 709 149.469635199 709 136.59375 c 2
 709 -112.857421875 l 1
 709 -142.857421875 l 1
 679 -142.857421875 l 1
 649 -142.857421875 l 1
 649 -112.857421875 l 1
 649 106.59375 l 1
 435 106.59375 l 1
 435 -16 l 1
 435 -46 l 1
 405 -46 l 1
 375 -46 l 1
 375 -16 l 1
 375 106.59375 l 1
 132 106.59375 l 1
 102 106.59375 l 1
 102 136.59375 l 1
EndSplineSet
Substitution2: "Single Substitution lookup 73 subtable" ubu.cvc
Substitution2: "Single Substitution lookup 69 subtable" ubu.ccv
EndChar

StartChar: abu.cv
Encoding: 46 -1 85
Width: 0
VWidth: 230
Flags: W
HStem: 106.594 60<102 709>
AnchorPoint: "Above" 405 230 mark 0
LayerCount: 2
Back
SplineSet
132 136.59375 m 5
 679 136.59375 l 1029
EndSplineSet
Fore
SplineSet
102 136.59375 m 1
 102 166.59375 l 1
 132 166.59375 l 1
 679 166.59375 l 1
 709 166.59375 l 1
 709 136.59375 l 1
 709 106.59375 l 1
 679 106.59375 l 1
 132 106.59375 l 1
 102 106.59375 l 1
 102 136.59375 l 1
EndSplineSet
Substitution2: "Single Substitution lookup 73 subtable" abu.cvc
Substitution2: "Single Substitution lookup 69 subtable" abu.ccv
EndChar

StartChar: eibu.ccv
Encoding: 122 -1 104
Width: 0
VWidth: 230
Flags: W
HStem: 106 60<134 375 435 738>
VStem: 74 60<-143 106> 375 60<166 267>
AnchorPoint: "Above" 405 230 mark 0
LayerCount: 2
Back
SplineSet
405 237 m 5
 405 136 l 1029
104 -113 m 29
 104 136 l 29
 708 136 l 1053
EndSplineSet
Fore
SplineSet
104 -143 m 1
 74 -143 l 1
 74 -113 l 1
 74 136 l 2
 74 154.159045427 91.1241148008 166 104 166 c 2
 375 166 l 1
 375 237 l 1
 375 267 l 1
 405 267 l 1
 435 267 l 1
 435 237 l 1
 435 166 l 1
 708 166 l 1
 738 166 l 1
 738 136 l 1
 738 106 l 1
 708 106 l 1
 435 106 l 1
 405 106 l 1
 375 106 l 1
 134 106 l 1
 134 -113 l 1
 134 -143 l 1
 104 -143 l 1
EndSplineSet
EndChar

StartChar: obu.ccv
Encoding: 107 -1 105
Width: 0
VWidth: 230
Flags: W
HStem: 106 60<74 375 435 678>
VStem: 375 60<-46 106> 678 60<-143 106>
AnchorPoint: "Above" 405 230 mark 0
LayerCount: 2
Back
SplineSet
405 136 m 25
 405 -16 l 1025
708 -113 m 25
 708 136 l 1
 104 136 l 1025
EndSplineSet
Fore
SplineSet
708 -143 m 1
 678 -143 l 1
 678 -113 l 1
 678 106 l 1
 435 106 l 1
 435 -16 l 1
 435 -46 l 1
 405 -46 l 1
 375 -46 l 1
 375 -16 l 1
 375 106 l 1
 104 106 l 1
 74 106 l 1
 74 136 l 1
 74 166 l 1
 104 166 l 1
 375 166 l 1
 405 166 l 1
 435 166 l 1
 708 166 l 2
 720.875885199 166 738 154.159045427 738 136 c 2
 738 -113 l 1
 738 -143 l 1
 708 -143 l 1
EndSplineSet
EndChar

StartChar: oibu.ccv
Encoding: 123 -1 106
Width: 0
VWidth: 230
Flags: W
HStem: 106 60<74 375 435 678>
VStem: 375 60<166 267> 678 60<-143 106>
AnchorPoint: "Above" 406 230 mark 0
LayerCount: 2
Back
SplineSet
405 237 m 5
 405 136 l 1029
104 136 m 29
 708 136 l 29
 708 -113 l 1053
EndSplineSet
Fore
SplineSet
74 136 m 1
 74 166 l 1
 104 166 l 1
 375 166 l 1
 375 237 l 1
 375 267 l 1
 405 267 l 1
 435 267 l 1
 435 237 l 1
 435 166 l 1
 708 166 l 2
 726.159045427 166 738 148.875885199 738 136 c 2
 738 -113 l 1
 738 -143 l 1
 708 -143 l 1
 678 -143 l 1
 678 -113 l 1
 678 106 l 1
 435 106 l 1
 405 106 l 1
 375 106 l 1
 104 106 l 1
 74 106 l 1
 74 136 l 1
EndSplineSet
EndChar

StartChar: ybu.ccv
Encoding: 111 -1 107
Width: 0
VWidth: 230
Flags: W
HStem: 106 60<74 375 435 738>
VStem: 375 60<-46 106>
AnchorPoint: "Above" 405 230 mark 0
LayerCount: 2
Back
SplineSet
405 136 m 29
 405 -16 l 1029
104 136 m 29
 708 136 l 1053
EndSplineSet
Fore
SplineSet
74 136 m 1
 74 166 l 1
 104 166 l 1
 375 166 l 1
 405 166 l 1
 435 166 l 1
 708 166 l 1
 738 166 l 1
 738 136 l 1
 738 106 l 1
 708 106 l 1
 435 106 l 1
 435 -16 l 1
 435 -46 l 1
 405 -46 l 1
 375 -46 l 1
 375 -16 l 1
 375 106 l 1
 104 106 l 1
 74 106 l 1
 74 136 l 1
EndSplineSet
EndChar

StartChar: ebu.cvc
Encoding: 74 -1 108
Width: 0
VWidth: 230
Flags: W
HStem: 330 60<84.9508 785.986>
VStem: 25 60<32.0055 329.684>
AnchorPoint: "Above" 405 230 mark 0
LayerCount: 2
Back
SplineSet
756 360 m 5
 54.9453125 359.669921875 l 5
 55 62 l 1029
EndSplineSet
Fore
SplineSet
785.999996675 360.014124922 m 1
 786.014121597 330.014128247 l 1
 756.014124922 330.000003325 l 1
 84.9508219693 329.684046067 l 1
 84.9999994937 62.0055115578 l 1
 85.0055110515 32.0055120641 l 1
 55.0055115578 32.0000005063 l 1
 25.0055120641 31.9944889485 l 1
 25.0000005063 61.9944884422 l 1
 24.9453130063 359.664410317 l 2
 24.9425547226 374.678043796 37.8860573915 389.661893178 54.9311875782 389.66991855 c 2
 755.985875078 389.999996675 l 1
 785.985871753 390.014121597 l 1
 785.999996675 360.014124922 l 1
EndSplineSet
EndChar

StartChar: obu.cvc
Encoding: 75 -1 109
Width: 0
VWidth: 230
Flags: W
HStem: 330 60<25 725.101>
VStem: 726.101 59.9997<32.1008 32.1008 62.1007 330>
AnchorPoint: "Above" 405 229 mark 0
LayerCount: 2
Back
SplineSet
55 360 m 29
 755 360 l 5
 756 62 l 1053
EndSplineSet
Fore
SplineSet
25 360 m 1
 25 390 l 1
 55 390 l 1
 755 390 l 2
 772.079232177 390 784.950018205 374.944910226 784.99983109 360.100670574 c 2
 785.99983109 62.1006705741 l 1
 786.100501664 32.100839484 l 1
 756.100670574 32.0001689099 l 1
 726.100839484 31.8994983358 l 1
 726.00016891 61.8993294259 l 1
 725.996813224 62.8993237955 726.00016891 60.8993294259 726.00016891 61.8993294259 c 1
 725.10050223 330 l 1
 55 330 l 1
 25 330 l 1
 25 360 l 1
EndSplineSet
EndChar

StartChar: ibu.cvc
Encoding: 76 -1 110
Width: 0
VWidth: 230
Flags: W
HStem: 330 60<84.1008 375 435 788>
VStem: 25.0002 59.9997<32.1008 32.1008 62.1007 330> 375 60<207 330>
AnchorPoint: "Above" 405 230 mark 0
LayerCount: 2
Back
SplineSet
405 237 m 29
 405 360 l 1053
758 360 m 29
 54 360 l 29
 55 62 l 1053
EndSplineSet
Fore
SplineSet
788 360 m 1
 788 330 l 1
 758 330 l 1
 435 330 l 1
 435 237 l 1
 435 207 l 1
 405 207 l 1
 375 207 l 1
 375 237 l 1
 375 330 l 1
 84.1008400518 330 l 1
 84.9998310901 62.1006705741 l 1
 85.1005016642 32.100839484 l 1
 55.1006705741 32.0001689099 l 1
 25.100839484 31.8994983358 l 1
 25.0001689099 61.8993294259 l 1
 24.9968132241 62.8993237955 24.5529553144 61.0049022349 25.0001689099 61.8993294259 c 1
 24.0001689099 359.899329426 l 2
 23.9563364721 372.961395889 35.873646896 390 54 390 c 2
 375 390 l 1
 405 390 l 1
 435 390 l 1
 758 390 l 1
 788 390 l 1
 788 360 l 1
EndSplineSet
EndChar

StartChar: ubu.cvc
Encoding: 77 -1 111
Width: 0
VWidth: 230
Flags: W
HStem: 330 60<26 375 435 726.899>
VStem: 375 60<207 330> 726 59.9997<32.1008 330>
AnchorPoint: "Above" 405 230 mark 0
LayerCount: 2
Back
SplineSet
405 237 m 29
 405 360 l 1053
56 360 m 29
 757 360 l 29
 756 62 l 1053
EndSplineSet
Fore
SplineSet
26 360 m 1
 26 390 l 1
 56 390 l 1
 375 390 l 1
 405 390 l 1
 435 390 l 1
 757 390 l 2
 775.126353104 390 787.043663528 372.961395889 786.99983109 359.899329426 c 2
 785.99983109 61.8993294259 l 1
 785.99983109 60.8993294259 786.003186776 62.8993237955 785.99983109 61.8993294259 c 1
 785.899160516 31.8994983358 l 1
 755.899329426 32.0001689099 l 1
 725.899498336 32.100839484 l 1
 726.00016891 62.1006705741 l 1
 726.899159948 330 l 1
 435 330 l 1
 435 237 l 1
 435 207 l 1
 405 207 l 1
 375 207 l 1
 375 237 l 1
 375 330 l 1
 56 330 l 1
 26 330 l 1
 26 360 l 1
EndSplineSet
EndChar

StartChar: abu.cvc
Encoding: 78 -1 112
Width: 0
VWidth: 230
Flags: W
HStem: 330 60<25 785>
AnchorPoint: "Above" 405 230 mark 0
LayerCount: 2
Back
SplineSet
55 360 m 29
 755 360 l 1053
EndSplineSet
Fore
SplineSet
25 360 m 1
 25 390 l 1
 55 390 l 1
 755 390 l 1
 785 390 l 1
 785 360 l 1
 785 330 l 1
 755 330 l 1
 55 330 l 1
 25 330 l 1
 25 360 l 1
EndSplineSet
EndChar

StartChar: ybu.cvc
Encoding: 79 -1 113
Width: 0
VWidth: 230
Flags: W
HStem: 330 60<26 375 435 787>
VStem: 375 60<207 330>
AnchorPoint: "Above" 405 230 mark 0
LayerCount: 2
Back
SplineSet
405 360 m 29
 405 237 l 1029
56 360 m 29
 757 360 l 1053
EndSplineSet
Fore
SplineSet
26 360 m 1
 26 390 l 1
 56 390 l 1
 375 390 l 1
 405 390 l 1
 435 390 l 1
 757 390 l 1
 787 390 l 1
 787 360 l 1
 787 330 l 1
 757 330 l 1
 435 330 l 1
 435 237 l 1
 435 207 l 1
 405 207 l 1
 375 207 l 1
 375 237 l 1
 375 330 l 1
 56 330 l 1
 26 330 l 1
 26 360 l 1
EndSplineSet
EndChar

StartChar: eibu.cvc
Encoding: 90 -1 114
Width: 0
VWidth: 230
Flags: W
HStem: 330 60<85 375 435 785>
VStem: 25 60<32 330> 375 60<390 513>
AnchorPoint: "Above" 405 230 mark 0
LayerCount: 2
Back
SplineSet
405 360 m 5
 405 483 l 1029
55 62 m 29
 55 360 l 29
 755 360 l 1053
EndSplineSet
Fore
SplineSet
55 32 m 1
 25 32 l 1
 25 62 l 1
 25 360 l 2
 25 378.159045427 42.1241148008 390 55 390 c 2
 375 390 l 1
 375 483 l 1
 375 513 l 1
 405 513 l 1
 435 513 l 1
 435 483 l 1
 435 390 l 1
 755 390 l 1
 785 390 l 1
 785 360 l 1
 785 330 l 1
 755 330 l 1
 435 330 l 1
 405 330 l 1
 375 330 l 1
 85 330 l 1
 85 62 l 1
 85 32 l 1
 55 32 l 1
EndSplineSet
EndChar

StartChar: oibu.cvc
Encoding: 91 -1 115
Width: 0
VWidth: 230
Flags: W
HStem: 330 60<25 375 435 726>
VStem: 375 60<390 513> 726 60<32 330>
AnchorPoint: "Above" 405 230 mark 0
LayerCount: 2
Back
SplineSet
405 360 m 5
 405 483 l 1029
756 62 m 29
 756 360 l 5
 55 360 l 1053
EndSplineSet
Fore
SplineSet
756 32 m 1
 726 32 l 1
 726 62 l 1
 726 330 l 1
 435 330 l 1
 405 330 l 1
 375 330 l 1
 55 330 l 1
 25 330 l 1
 25 360 l 1
 25 390 l 1
 55 390 l 1
 375 390 l 1
 375 483 l 1
 375 513 l 1
 405 513 l 1
 435 513 l 1
 435 483 l 1
 435 390 l 1
 756 390 l 2
 768.875885199 390 786 378.159045427 786 360 c 2
 786 62 l 1
 786 32 l 1
 756 32 l 1
EndSplineSet
EndChar

StartChar: aibu.cvc
Encoding: 92 -1 116
Width: 0
VWidth: 230
Flags: W
HStem: 330 60<25 375 435 787>
VStem: 375 60<390 513>
AnchorPoint: "Above" 405 230 mark 0
LayerCount: 2
Back
SplineSet
405 483 m 5
 405 360 l 1053
55 360 m 29
 757 360 l 1053
EndSplineSet
Fore
SplineSet
25 360 m 1
 25 390 l 1
 55 390 l 1
 375 390 l 1
 375 483 l 1
 375 513 l 1
 405 513 l 1
 435 513 l 1
 435 483 l 1
 435 390 l 1
 757 390 l 1
 787 390 l 1
 787 360 l 1
 787 330 l 1
 757 330 l 1
 435 330 l 1
 405 330 l 1
 375 330 l 1
 55 330 l 1
 25 330 l 1
 25 360 l 1
EndSplineSet
EndChar

StartChar: aubu.cvc
Encoding: 93 -1 117
Width: 0
VWidth: 230
Flags: W
HStem: 330 60<85 725.101>
VStem: 25 60<32 330> 726.101 59.9997<32.1008 330>
AnchorPoint: "Above" 405 230 mark 0
LayerCount: 2
Back
SplineSet
756 62 m 25
 755 360 l 25
 55 360 l 25
 55 62 l 1049
EndSplineSet
Fore
SplineSet
756.100670574 32.0001689099 m 1
 726.100839484 31.8994983358 l 1
 726.00016891 61.8993294259 l 1
 726.003524596 60.8993350562 726.00016891 60.8993294259 726.00016891 61.8993294259 c 1
 725.10050223 330 l 1
 85 330 l 1
 85 62 l 1
 85 32 l 1
 55 32 l 1
 25 32 l 1
 25 62 l 1
 25 360 l 2
 25 372.875885199 36.8409545734 390 55 390 c 2
 755 390 l 2
 769.844323231 390 784.942518553 377.179806589 784.99983109 360.100670574 c 2
 785.99983109 62.1006705741 l 1
 786.100501664 32.100839484 l 1
 756.100670574 32.0001689099 l 1
EndSplineSet
EndChar

StartChar: ibu.ccv
Encoding: 108 -1 119
Width: 0
VWidth: 230
Flags: W
HStem: 106 60<134 738>
VStem: 74 60<-143 106>
AnchorPoint: "Above" 405 230 mark 0
LayerCount: 2
Back
SplineSet
708 136 m 29
 104 136 l 29
 104 -113 l 1053
EndSplineSet
Fore
SplineSet
738 136 m 1
 738 106 l 1
 708 106 l 1
 134 106 l 1
 134 -113 l 1
 134 -143 l 1
 104 -143 l 1
 74 -143 l 1
 74 -113 l 1
 74 136 l 2
 74 148.875885199 85.8409545734 166 104 166 c 2
 708 166 l 1
 738 166 l 1
 738 136 l 1
EndSplineSet
EndChar

StartChar: ubu.ccv
Encoding: 109 -1 120
Width: 0
VWidth: 230
Flags: W
HStem: 106 60<74 678>
VStem: 678 60<-143 106>
AnchorPoint: "Above" 405 230 mark 0
LayerCount: 2
Back
SplineSet
104 136 m 29
 708 136 l 29
 708 -113 l 1053
EndSplineSet
Fore
SplineSet
74 136 m 1
 74 166 l 1
 104 166 l 1
 708 166 l 2
 726.159045427 166 738 148.875885199 738 136 c 2
 738 -113 l 1
 738 -143 l 1
 708 -143 l 1
 678 -143 l 1
 678 -113 l 1
 678 106 l 1
 104 106 l 1
 74 106 l 1
 74 136 l 1
EndSplineSet
EndChar

StartChar: abu.ccv
Encoding: 110 -1 121
Width: 0
VWidth: 230
Flags: W
HStem: 106 60<74 738>
AnchorPoint: "Above" 405 230 mark 0
LayerCount: 2
Back
SplineSet
104 136 m 29
 708 136 l 1053
EndSplineSet
Fore
SplineSet
74 136 m 1
 74 166 l 1
 104 166 l 1
 708 166 l 1
 738 166 l 1
 738 136 l 1
 738 106 l 1
 708 106 l 1
 104 106 l 1
 74 106 l 1
 74 136 l 1
EndSplineSet
EndChar

StartChar: aibu.ccv
Encoding: 124 -1 122
Width: 0
VWidth: 230
Flags: W
HStem: 106 60<74 375 435 738>
VStem: 375 60<105 106 166 267>
AnchorPoint: "Above" 405 230 mark 0
LayerCount: 2
Back
SplineSet
405 237 m 29
 405 135 l 1053
708 136 m 29
 104 136 l 1053
EndSplineSet
Fore
SplineSet
738 136 m 1
 738 106 l 1
 708 106 l 1
 435 106 l 1
 435 105 l 1
 405 105 l 1
 375 105 l 1
 375 106 l 1
 104 106 l 1
 74 106 l 1
 74 136 l 1
 74 166 l 1
 104 166 l 1
 375 166 l 1
 375 237 l 1
 375 267 l 1
 405 267 l 1
 435 267 l 1
 435 237 l 1
 435 166 l 1
 708 166 l 1
 738 166 l 1
 738 136 l 1
EndSplineSet
EndChar

StartChar: aubu.ccv
Encoding: 125 -1 123
Width: 0
VWidth: 230
Flags: W
HStem: 106 60<134 678>
VStem: 74 60<-143 106> 678 60<-143 106>
AnchorPoint: "Above" 405 230 mark 0
LayerCount: 2
Back
SplineSet
708 -113 m 29
 708 136 l 29
 104 136 l 29
 104 -113 l 1053
EndSplineSet
Fore
SplineSet
708 -143 m 1
 678 -143 l 1
 678 -113 l 1
 678 106 l 1
 134 106 l 1
 134 -113 l 1
 134 -143 l 1
 104 -143 l 1
 74 -143 l 1
 74 -113 l 1
 74 136 l 2
 74 148.875885199 85.8409545734 166 104 166 c 2
 708 166 l 2
 720.875885199 166 738 154.159045427 738 136 c 2
 738 -113 l 1
 738 -143 l 1
 708 -143 l 1
EndSplineSet
EndChar

StartChar: denpabu.ccv.1
Encoding: 127 -1 143
Width: 810
VWidth: 230
Flags: W
HStem: 255 60<192.984 255.017> 801 60<192.983 255.016>
VStem: 74 60<409.098 706.903> 314 60<409.097 706.902>
AnchorPoint: "Above" 405 230 basechar 0
LayerCount: 2
Back
SplineSet
104 558 m 4
 104 709 158 831 224 831 c 4
 290 831 344 709 344 558 c 4
 344 407 290 285 224 285 c 4
 158 285 104 407 104 558 c 4
EndSplineSet
Fore
SplineSet
74 558 m 0
 74 705.477010752 122.374396095 861 224 861 c 0
 325.632850079 861 374 705.448101752 374 558 c 0
 374 410.522989248 325.625603905 255 224 255 c 0
 122.367149921 255 74 410.551898248 74 558 c 0
134 558 m 0
 134 403.448101752 193.632850079 315 224 315 c 0
 254.374396095 315 314 403.477010752 314 558 c 0
 314 712.551898248 254.367149921 801 224 801 c 0
 193.625603905 801 134 712.522989248 134 558 c 0
EndSplineSet
EndChar

StartChar: guillemotleft
Encoding: 160 171 145
Width: 800
VWidth: 230
Flags: W
LayerCount: 2
Back
SplineSet
586 503 m 5
 405 360 l 5
 586 217 l 1029
405 503 m 5
 224 360 l 5
 405 217 l 1029
EndSplineSet
Fore
SplineSet
428.539823387 521.597761019 m 1
 447.137584406 498.057937631 l 1
 423.597761019 479.460176613 l 1
 272.392922089 360 l 1
 423.597761019 240.539823387 l 1
 447.137584406 221.942062369 l 1
 428.539823387 198.402238981 l 1
 409.942062369 174.862415594 l 1
 386.402238981 193.460176613 l 1
 205.402238981 336.460176613 l 1
 205.402238981 336.460176613 203.196275208 338.312536641 201.991864433 339.612700795 c 0
 190.272915498 352.263332655 191.871168218 372.849529911 205.402238981 383.539823387 c 2
 386.402238981 526.539823387 l 1
 409.942062369 545.137584406 l 1
 428.539823387 521.597761019 l 1
609.539823387 521.597761019 m 1
 628.137584406 498.057937631 l 1
 604.597761019 479.460176613 l 1
 453.392922089 360 l 1
 604.597761019 240.539823387 l 1
 628.137584406 221.942062369 l 1
 609.539823387 198.402238981 l 1
 590.942062369 174.862415594 l 1
 567.402238981 193.460176613 l 1
 386.402238981 336.460176613 l 1
 386.402238981 336.460176613 384.196275208 338.312536641 382.991864433 339.612700795 c 0
 371.272915498 352.263332655 372.871168218 372.849529911 386.402238981 383.539823387 c 2
 567.402238981 526.539823387 l 1
 590.942062369 545.137584406 l 1
 609.539823387 521.597761019 l 1
EndSplineSet
EndChar

StartChar: parenleft
Encoding: 162 40 148
Width: 500
VWidth: 230
Flags: W
VStem: 74 60<226.014 492.23>
LayerCount: 2
Back
SplineSet
377 832 m 25
 377 832 104.002929688 658.009765625 104 359 c 0
 103.997070312 61.0087890625 377 -113 377 -113 c 1049
EndSplineSet
Fore
SplineSet
402.288221155 848.140194262 m 1
 418.428415417 822.851973108 l 1
 393.149589168 806.717775139 l 2
 389.787957257 804.559797504 134.002722529 636.866637883 133.999999999 358.999705056 c 0
 133.997273894 81.7157863207 390.635452994 -86.1037229685 393.150396291 -87.7182907972 c 2
 418.428757854 -103.853524029 l 1
 402.287616913 -129.141140941 l 1
 386.146475971 -154.428757854 l 1
 361.701779622 -138.825654944 l 2
 359.112567463 -137.172955184 73.9968835317 42.0106559324 74.0000000014 359.000294944 c 0
 74.0031085877 676.268820705 358.873010275 856.020150661 360.8575257 857.286766619 c 2
 386.148026892 873.428415417 l 1
 402.288221155 848.140194262 l 1
EndSplineSet
EndChar

StartChar: denpabu_iy
Encoding: 174 -1 149
Width: 810
VWidth: 2427
Flags: W
HStem: 255.494 60<161.868 710.19> 456 60<395.837 540.163> 800 60<395.837 540.163>
VStem: 101.868 60<314.975 857.802> 270 60<582.685 733.315> 606 60<582.685 733.315>
AnchorPoint: "Above" 405 230 basechar 0
LayerCount: 2
Back
SplineSet
131.868164062 827.801757812 m 5
 131.868164062 284.9453125 l 5
 680.219726562 285.494140625 l 1029
300 658 m 0
 300 753 375 830 468 830 c 0
 561 830 636 753 636 658 c 0
 636 563 561 486 468 486 c 0
 375 486 300 563 300 658 c 0
EndSplineSet
Fore
SplineSet
131.868164062 857.801757812 m 1
 161.868164062 857.801757812 l 1
 161.868164062 827.801757812 l 1
 161.868164062 314.975353599 l 1
 680.189700505 315.494125599 l 1
 710.189685479 315.524151656 l 1
 710.219711536 285.524166682 l 1
 710.249737594 255.524181708 l 1
 680.24975262 255.494155651 l 1
 131.89819012 254.945327526 l 2
 118.966761035 254.932384859 101.868164062 266.795958086 101.868164062 284.9453125 c 2
 101.868164062 827.801757812 l 1
 101.868164062 857.801757812 l 1
 131.868164062 857.801757812 l 1
330 658 m 0
 330 578.926759688 392.172395792 516 468 516 c 0
 543.827128886 516 606 578.926667329 606 658 c 0
 606 737.073240312 543.827604208 800 468 800 c 0
 392.172871114 800 330 737.073332671 330 658 c 0
270 658 m 0
 270 768.926667329 357.827128886 860 468 860 c 0
 578.172395792 860 666 768.926759688 666 658 c 0
 666 547.073332671 578.172871114 456 468 456 c 0
 357.827604208 456 270 547.073240312 270 658 c 0
EndSplineSet
LCarets2: 1 0
Ligature2: "Vdenpabu subtable" denpabu iy
EndChar

StartChar: denpabu_uy
Encoding: 175 -1 150
Width: 810
VWidth: 2427
Flags: W
HStem: 255.494 60<101.868 652.418> 455 60<270.837 415.163> 799 60<270.837 415.163>
VStem: 145 60<581.685 732.315> 481 60<581.685 732.315> 652.418 60<315.494 864.396>
AnchorPoint: "Above" 405 230 basechar 0
LayerCount: 2
Back
SplineSet
131.868164062 285.494140625 m 1
 682.41796875 285.494140625 l 1
 682.41796875 834.395507812 l 1025
175 657 m 0
 175 752 250 829 343 829 c 0
 436 829 511 752 511 657 c 0
 511 562 436 485 343 485 c 0
 250 485 175 562 175 657 c 0
EndSplineSet
Fore
SplineSet
101.868164062 285.494140625 m 1
 101.868164062 315.494140625 l 1
 131.868164062 315.494140625 l 1
 652.41796875 315.494140625 l 1
 652.41796875 834.395507812 l 1
 652.41796875 864.395507812 l 1
 682.41796875 864.395507812 l 1
 712.41796875 864.395507812 l 1
 712.41796875 834.395507812 l 1
 712.41796875 285.494140625 l 2
 712.41796875 272.618255426 700.577014177 255.494140625 682.41796875 255.494140625 c 2
 131.868164062 255.494140625 l 1
 101.868164062 255.494140625 l 1
 101.868164062 285.494140625 l 1
205 657 m 0
 205 577.926759688 267.172395792 515 343 515 c 0
 418.827128886 515 481 577.926667329 481 657 c 0
 481 736.073240312 418.827604208 799 343 799 c 0
 267.172871114 799 205 736.073332671 205 657 c 0
145 657 m 0
 145 767.926667329 232.827128886 859 343 859 c 0
 453.172395792 859 541 767.926759688 541 657 c 0
 541 546.073332671 453.172871114 455 343 455 c 0
 232.827604208 455 145 546.073240312 145 657 c 0
EndSplineSet
LCarets2: 1 0
Ligature2: "Vdenpabu subtable" denpabu uy
EndChar

StartChar: colon
Encoding: 164 58 151
Width: 326
VWidth: 230
Flags: W
HStem: 91 82<121.935 194.065> 546 82<121.935 194.065>
VStem: 117 82<95.9351 168.065 550.935 623.065>
LayerCount: 2
Fore
SplineSet
117 132 m 0
 117 154.710004933 135.289995067 173 158 173 c 0
 180.710004933 173 199 154.710004933 199 132 c 0
 199 109.289995067 180.710004933 91 158 91 c 0
 135.289995067 91 117 109.289995067 117 132 c 0
117 587 m 0
 117 609.710004933 135.289995067 628 158 628 c 0
 180.710004933 628 199 609.710004933 199 587 c 0
 199 564.289995067 180.710004933 546 158 546 c 0
 135.289995067 546 117 564.289995067 117 587 c 0
EndSplineSet
EndChar

StartChar: question
Encoding: 165 63 152
Width: 698
VWidth: 230
Flags: W
HStem: 60 82<310.935 383.065> 697 60<226.469 468.476>
VStem: 89 60<473.149 629.69> 306 82<64.9351 137.065> 318.814 59.9988<206.187 322.539> 549 60<504.794 628.416>
LayerCount: 2
Fore
SplineSet
306 101 m 0xf4
 306 123.710004933 324.289995067 142 347 142 c 0
 369.710004933 142 388 123.710004933 388 101 c 0
 388 78.2899950668 369.710004933 60 347 60 c 0
 324.289995067 60 306 78.2899950668 306 101 c 0xf4
240.146628596 386.61889704 m 1
 229.765525637 358.472268444 l 1
 201.612823784 368.855604795 l 2
 196.291957946 370.818058518 89 413.687872997 89 559 c 0
 89 660.268164219 166.422814834 757 349 757 c 0
 531.964623002 757 609 657.217879028 609 559 c 0
 609 343.334581726 380.320863613 448.45260833 378.999420719 235.813568941 c 2
 378.81298966 205.814148222 l 1
 348.813568941 206.000579281 l 1
 318.814148222 206.18701034 l 1xec
 319.000579281 236.186431059 l 2
 320.686948887 507.54739167 549 426.638074524 549 559 c 0
 549 620.793839722 508.035376998 697 349 697 c 0
 189.577185166 697 149 623.731835781 149 559 c 0
 149 453.974516834 219.470984775 426.313273333 222.530624209 425.091481832 c 2
 250.527731556 414.765525637 l 1
 240.146628596 386.61889704 l 1
EndSplineSet
EndChar

StartChar: exclam
Encoding: 166 33 153
Width: 350
VWidth: 230
Flags: W
HStem: 91 82<121.935 194.065>
VStem: 117 82<95.9351 168.065> 127 60<255 700>
LayerCount: 2
Fore
SplineSet
117 132 m 0xc0
 117 154.710004933 135.289995067 173 158 173 c 0
 180.710004933 173 199 154.710004933 199 132 c 0
 199 109.289995067 180.710004933 91 158 91 c 0
 135.289995067 91 117 109.289995067 117 132 c 0xc0
157 700 m 1
 187 700 l 1
 187 670 l 1
 187 285 l 1
 187 255 l 1
 157 255 l 1
 127 255 l 1
 127 285 l 1
 127 670 l 1
 127 700 l 1xa0
 157 700 l 1
EndSplineSet
EndChar

StartChar: less
Encoding: 167 60 154
Width: 807
VWidth: 230
Flags: W
LayerCount: 2
Fore
SplineSet
660.806235556 672.298307306 m 1
 676.104542862 646.49207175 l 1
 650.298307306 631.193764444 l 1
 192.800282188 359.982360332 l 1
 651.313787926 87.7970521445 l 1
 677.110840071 72.4832642181 l 1
 661.797052144 46.6862120736 l 1
 646.483264218 20.8891599291 l 1
 620.686212074 36.2029478555 l 1
 118.686212074 334.202947856 l 2
 115.844835075 335.889661692 111.886111927 339.299096316 109.473572976 342.724167822 c 0
 99.5431455532 356.822354294 103.867851603 377.012521376 118.701692694 385.806235556 c 2
 619.701692694 682.806235556 l 1
 645.50792825 698.104542862 l 1
 660.806235556 672.298307306 l 1
EndSplineSet
EndChar

StartChar: braceleft
Encoding: 169 123 156
Width: 535
VWidth: 230
Flags: W
HStem: -142.996 59.9956<324.717 434.878> 328.948 60.152<76.2927 138.879> 802.001 59.9982<323.893 434.789>
VStem: 194 60<-13.9519 240.705 476.282 734.75>
LayerCount: 2
Fore
SplineSet
434.999264349 832.21009166 m 1
 435.209356009 802.210827311 l 1
 405.250140234 802.00101612 l 2
 396.27139329 801.856755948 254 797.856770035 254 656 c 0
 254 479.474943275 212.691104049 397.163399056 170.704735294 358.958289328 c 1
 214.340189515 318.86006773 254 236.910763723 254 61 c 0
 254 -81.0476917633 396.805962029 -82.9595145768 404.918192382 -83.0000847795 c 2
 434.877873689 -82.8783688386 l 1
 434.999752425 -112.878121264 l 1
 435.121631161 -142.877873689 l 1
 406.121870484 -142.995689801 l 1
 406.121870484 -142.995689801 194 -144.363533002 194 61 c 0
 194 326.300206277 104.552431088 328.948007663 104.552431088 328.948007663 c 1
 90.0811488015 330.043792278 76.4213249251 340.376733658 75.099589031 356.557578275 c 0
 73.7692388257 372.843880291 84.2524838144 387.405119865 105.001284167 389.100030353 c 1
 105.001284167 389.100030353 194 390.122139202 194 656 c 0
 194 860.468586352 404.78487138 861.999231561 404.78487138 861.999231561 c 1
 434.789172689 862.209356009 l 1
 434.999264349 832.21009166 l 1
EndSplineSet
EndChar

StartChar: semicolon
Encoding: 171 59 158
Width: 378
VWidth: 230
Flags: W
HStem: 552 82<158.935 231.065>
VStem: 154 82<556.935 629.065>
LayerCount: 2
Fore
SplineSet
207 237 m 25
 207 237 275 154 175 62 c 1024
188.053494914 260.260050409 m 1
 211.313545322 279.206555495 l 1
 230.2640951 255.941549138 l 2
 233.360621564 252.140037391 312.023466971 147.29689901 195.311695925 39.9220696471 c 2
 173.233765572 19.6103737225 l 1
 152.922069647 41.6883040754 l 1
 132.610373723 63.7662344282 l 1
 154.688304075 84.0779303529 l 2
 234.01203486 157.055762675 186.02343832 215.085251512 183.636914781 218.179987629 c 2
 164.793444505 241.313545322 l 1
 188.053494914 260.260050409 l 1
154 593 m 0
 154 615.710004933 172.289995067 634 195 634 c 0
 217.710004933 634 236 615.710004933 236 593 c 0
 236 570.289995067 217.710004933 552 195 552 c 0
 172.289995067 552 154 570.289995067 154 593 c 0
EndSplineSet
EndChar

StartChar: quotedbl
Encoding: 172 34 159
Width: 407
VWidth: 230
Flags: W
HStem: 627 235<102 162 256 316>
VStem: 102 60<627 862> 256 60<627 862>
LayerCount: 2
Fore
SplineSet
132 862 m 1
 162 862 l 1
 162 832 l 1
 162 657 l 1
 162 627 l 1
 132 627 l 1
 102 627 l 1
 102 657 l 1
 102 832 l 1
 102 862 l 1
 132 862 l 1
286 862 m 1
 316 862 l 1
 316 832 l 1
 316 657 l 1
 316 627 l 1
 286 627 l 1
 256 627 l 1
 256 657 l 1
 256 832 l 1
 256 862 l 1
 286 862 l 1
EndSplineSet
EndChar
